<svg width="415" height="429" viewBox="0 0 415 429" fill="none" xmlns="http://www.w3.org/2000/svg">
<g clip-path="url(#clip0_1_307)">
<path d="M49.4686 275.249L34.5758 275.53L27.034 275.641C24.5134 275.691 21.9827 275.681 19.452 275.701H19.0102V275.249L18.9599 262.554V262.052H19.4621L34.4754 262.112C39.4765 262.122 44.4876 262.223 49.4887 262.273H49.7699V262.544C49.7498 264.695 49.6795 266.836 49.6393 268.957L49.4686 275.249ZM49.4686 275.249L49.328 268.836C49.2778 266.725 49.2175 264.625 49.1975 262.544L49.4686 262.816C44.4675 262.866 39.4564 262.976 34.4553 262.976L19.442 263.037L19.9441 262.534L19.8939 275.229L19.442 274.776C21.9224 274.796 24.3929 274.786 26.8733 274.837L34.3348 274.947L49.4686 275.249Z" fill="#EBEBEB"/>
<path d="M32.728 291.26L17.8352 291.541L10.2934 291.652C7.77277 291.702 5.2421 291.692 2.71143 291.712H2.26957V291.26L2.21936 278.566V278.063H2.72147L17.7348 278.123C22.7359 278.133 27.747 278.234 32.7481 278.284H33.0293V278.556C33.0092 280.706 32.9389 282.847 32.8987 284.968L32.728 291.26ZM32.728 291.26L32.5874 284.847C32.5372 282.737 32.4769 280.636 32.4569 278.556L32.728 278.827C27.7269 278.877 22.7158 278.988 17.7147 278.988L2.70139 279.048L3.20351 278.545L3.15329 291.24L2.70139 290.788C5.18185 290.808 7.65227 290.798 10.1327 290.838L17.5942 290.948L32.728 291.26Z" fill="#EBEBEB"/>
<path d="M32.728 16.5039L17.8252 16.7853L10.2834 16.8958C7.76273 16.9461 5.23206 16.9361 2.70139 16.9562H2.25953V16.5039L2.19927 3.80935V3.30679H2.70139L17.7147 3.3671C22.7158 3.37715 27.7269 3.47766 32.728 3.52792H33.0092V3.7993C32.9891 5.95023 32.9188 8.0911 32.8786 10.2119L32.728 16.5039ZM32.728 16.5039L32.5874 10.0913C32.5372 7.98054 32.4769 5.87987 32.4569 3.7993L32.728 4.07068C27.7269 4.12093 22.7158 4.23149 17.7147 4.23149L2.70139 4.3119L3.20351 3.80935L3.14325 16.5039L2.69135 16.0516C5.17181 16.0717 7.64222 16.0616 10.1227 16.1018L17.5841 16.2124L32.728 16.5039Z" fill="#EBEBEB"/>
<path d="M412.299 16.5039L397.406 16.7853L389.854 16.8958C387.333 16.9461 384.803 16.9361 382.272 16.9562H381.83V16.5039L381.78 3.80935V3.30679H382.282L397.295 3.3671C402.296 3.37715 407.308 3.47766 412.309 3.52792H412.59V3.7993C412.57 5.95023 412.499 8.0911 412.459 10.2119L412.299 16.5039ZM412.299 16.5039L412.158 10.0913C412.108 7.98054 412.048 5.87987 412.027 3.7993L412.299 4.07068C407.297 4.12093 402.286 4.23149 397.285 4.23149L382.272 4.2918L382.774 3.78924L382.724 16.4838L382.272 16.0315C384.752 16.0516 387.223 16.0415 389.703 16.0817L397.165 16.1923L412.299 16.5039Z" fill="#EBEBEB"/>
<path d="M395.558 32.5152L380.665 32.7966L373.123 32.9072C370.603 32.9575 368.072 32.9474 365.541 32.9575H365.1V32.5052L365.049 19.8107V19.3081H365.551L380.565 19.3684C385.566 19.3684 390.577 19.479 395.578 19.5292H395.859V19.8006C395.839 21.9515 395.769 24.0924 395.729 26.2132L395.558 32.5152ZM395.558 32.5152L395.417 26.1026C395.367 23.9919 395.307 21.8912 395.287 19.8107L395.558 20.082C390.557 20.1323 385.546 20.2429 380.545 20.2429L365.531 20.3032L366.034 19.8006L365.983 32.4951L365.531 32.0428C368.012 32.0629 370.482 32.0529 372.963 32.1031L380.424 32.2137L395.558 32.5152Z" fill="#EBEBEB"/>
<path d="M318.664 181.06L303.771 181.342L296.219 181.452C293.699 181.502 291.168 181.492 288.637 181.502H288.195V181.05L288.145 168.356V167.853H288.647L303.661 167.913C308.662 167.923 313.673 168.024 318.674 168.074H318.955V168.345C318.935 170.496 318.865 172.637 318.824 174.758L318.664 181.06ZM318.664 181.06L318.523 174.647C318.473 172.537 318.413 170.436 318.393 168.356L318.664 168.627C313.663 168.677 308.652 168.788 303.65 168.788L288.637 168.848L289.139 168.345L289.089 181.04L288.637 180.588C291.118 180.608 293.588 180.598 296.069 180.638L303.53 180.748L318.664 181.06Z" fill="#EBEBEB"/>
<path d="M301.913 197.071L287.02 197.353L279.479 197.463C276.958 197.514 274.427 197.504 271.897 197.524H271.455V197.071L271.405 184.377V183.874H271.907L286.92 183.935C291.921 183.945 296.932 184.045 301.933 184.096H302.214V184.367C302.194 186.518 302.124 188.659 302.084 190.779L301.913 197.071ZM301.913 197.071L301.773 190.659C301.722 188.548 301.662 186.447 301.642 184.367L301.913 184.638C296.912 184.689 291.901 184.799 286.9 184.799L271.887 184.859L272.389 184.357L272.338 197.051L271.887 196.599C274.367 196.619 276.837 196.609 279.318 196.659L286.779 196.77L301.913 197.071Z" fill="#EBEBEB"/>
<path d="M285.233 181.06L270.34 181.342L262.788 181.452C260.267 181.502 257.737 181.492 255.206 181.502H254.764V181.05L254.714 168.356V167.853H255.216L270.23 167.913C275.231 167.923 280.242 168.024 285.243 168.074H285.524V168.345C285.504 170.496 285.434 172.637 285.393 174.758L285.233 181.06ZM285.233 181.06L285.092 174.647C285.052 172.537 284.982 170.436 284.962 168.356L285.233 168.627C280.232 168.677 275.221 168.788 270.219 168.788L255.206 168.848L255.708 168.345L255.658 181.04L255.206 180.588C257.687 180.608 260.157 180.598 262.637 180.638L270.099 180.748L285.233 181.06Z" fill="#EBEBEB"/>
<path d="M412.299 291.26L397.406 291.541L389.854 291.652C387.333 291.702 384.803 291.692 382.272 291.712H381.83V291.26L381.78 278.566V278.063H382.282L397.295 278.123C402.296 278.133 407.308 278.234 412.309 278.284H412.59V278.556C412.57 280.706 412.499 282.847 412.459 284.968L412.299 291.26ZM412.299 291.26L412.158 284.847C412.108 282.737 412.048 280.636 412.027 278.556L412.299 278.827C407.297 278.877 402.286 278.988 397.285 278.988L382.272 279.048L382.774 278.545L382.724 291.24L382.272 290.788C384.752 290.808 387.223 290.798 389.703 290.838L397.165 290.948L412.299 291.26Z" fill="#EBEBEB"/>
<path d="M157.213 54.2657L142.32 54.5472L134.778 54.6577C132.258 54.708 129.727 54.6979 127.196 54.718H126.755V54.2657L126.704 41.5712V41.0687H127.206L142.22 41.129C147.221 41.139 152.232 41.2395 157.233 41.2898H157.514V41.5612C157.494 43.7121 157.424 45.853 157.384 47.9738L157.213 54.2657ZM157.213 54.2657L157.072 47.8531C157.022 45.7424 156.962 43.6417 156.942 41.5612L157.213 41.8325C152.212 41.8828 147.201 41.9934 142.2 41.9934L127.186 42.0537L127.688 41.5511L127.638 54.2456L127.186 53.7933C129.667 53.8134 132.137 53.8034 134.618 53.8536L142.079 53.9642L157.213 54.2657Z" fill="#EBEBEB"/>
<path d="M381.459 138.383L387.373 128.845L384.451 127.036C383.598 126.503 383.126 125.528 383.216 124.523C383.266 123.97 383.286 123.407 383.266 122.844C383.246 121.839 383.768 120.894 384.662 120.422L387.685 118.794L382.382 108.893L379.36 110.522C378.476 110.994 377.401 110.914 376.578 110.341C376.116 110.019 375.644 109.728 375.152 109.456C374.268 108.974 373.716 108.049 373.746 107.034L373.856 103.596L362.649 103.245L362.549 106.692C362.519 107.707 361.896 108.582 360.982 109.014C360.731 109.135 360.49 109.255 360.249 109.386C360.008 109.517 359.767 109.657 359.536 109.798C358.672 110.321 357.608 110.351 356.754 109.818L353.812 107.999L347.897 117.537L350.819 119.357C351.673 119.889 352.145 120.864 352.055 121.869C352.004 122.422 351.984 122.985 352.004 123.538C352.024 124.543 351.502 125.478 350.608 125.96L347.586 127.588L352.888 137.489L355.911 135.86C356.795 135.388 357.869 135.468 358.693 136.041C359.154 136.363 359.626 136.654 360.119 136.916C361.002 137.398 361.555 138.323 361.524 139.338L361.414 142.786L372.621 143.137L372.732 139.69C372.762 138.685 373.384 137.81 374.288 137.378C374.539 137.257 374.78 137.137 375.031 137.006C375.272 136.876 375.513 136.735 375.744 136.594C376.608 136.071 377.683 136.041 378.546 136.574L381.459 138.383ZM371.969 131.297C367.5 133.699 361.936 132.021 359.536 127.538C357.136 123.065 358.813 117.487 363.282 115.085C367.751 112.683 373.324 114.371 375.724 118.844C378.124 123.327 376.437 128.895 371.969 131.297Z" fill="#EBEBEB"/>
<path d="M58.4063 246.472L64.3212 236.934L61.3989 235.125C60.5453 234.592 60.0733 233.617 60.1637 232.612C60.2139 232.059 60.234 231.496 60.2139 230.933C60.1938 229.928 60.716 228.984 61.6098 228.511L64.6326 226.883L59.3302 216.983L56.3074 218.611C55.4237 219.083 54.3492 219.003 53.5257 218.43C53.0638 218.108 52.5918 217.817 52.0997 217.545C51.216 217.063 50.6636 216.138 50.6938 215.123L50.8042 211.686L39.597 211.334L39.4966 214.781C39.4664 215.797 38.8438 216.671 37.9299 217.103C37.6789 217.224 37.4379 217.344 37.1969 217.475C36.9558 217.606 36.7148 217.746 36.4839 217.887C35.6202 218.41 34.5557 218.44 33.7021 217.907L30.7597 216.088L24.8448 225.626L27.7671 227.446C28.6207 227.978 29.0927 228.953 29.0023 229.959C28.9521 230.511 28.932 231.074 28.9521 231.627C28.9722 232.632 28.45 233.567 27.5562 234.049L24.5335 235.678L29.8358 245.578L32.8586 243.95C33.7423 243.477 34.8168 243.558 35.6403 244.131C36.1022 244.452 36.5742 244.744 37.0663 245.005C37.95 245.487 38.5024 246.412 38.4722 247.427L38.3618 250.875L49.569 251.227L49.6795 247.779C49.7096 246.774 50.3323 245.9 51.2361 245.467C51.4871 245.347 51.7281 245.226 51.9792 245.095C52.2202 244.965 52.4612 244.824 52.6922 244.683C53.5558 244.161 54.6304 244.131 55.494 244.663L58.4063 246.472ZM48.9062 239.386C44.4374 241.789 38.8739 240.11 36.4738 235.627C34.0737 231.155 35.7508 225.576 40.2196 223.174C44.6884 220.772 50.262 222.46 52.6621 226.933C55.0722 231.416 53.3851 236.984 48.9062 239.386Z" fill="#EBEBEB"/>
<path d="M173.22 63.764L169.294 56.9494L167.215 58.1555C166.603 58.5073 165.849 58.4771 165.257 58.0851C164.925 57.8741 164.594 57.6731 164.243 57.4921C163.61 57.1705 163.208 56.5373 163.208 55.8337V53.4214H155.345V55.8337C155.345 56.5373 154.943 57.1705 154.311 57.4921C153.959 57.6731 153.618 57.864 153.296 58.0851C152.704 58.4671 151.951 58.5073 151.338 58.1555L149.259 56.9494L145.333 63.764L147.422 64.9701C148.034 65.3219 148.376 65.9953 148.336 66.709C148.325 66.8999 148.325 67.0909 148.325 67.2919C148.325 67.4829 148.325 67.6739 148.336 67.8749C148.376 68.5785 148.034 69.2519 147.422 69.6037L145.323 70.8199L149.249 77.6345L151.338 76.4284C151.951 76.0766 152.704 76.1067 153.296 76.4987C153.618 76.7098 153.959 76.9108 154.311 77.0817C154.943 77.4033 155.345 78.0365 155.345 78.7401V81.1524H163.208V78.7401C163.208 78.0365 163.61 77.4033 164.243 77.0817C164.594 76.9008 164.925 76.7098 165.257 76.4987C165.849 76.1067 166.603 76.0766 167.215 76.4284L169.304 77.6345L173.23 70.8199L171.142 69.6137C170.529 69.2619 170.198 68.5885 170.228 67.8849C170.238 67.694 170.238 67.493 170.238 67.302C170.238 67.111 170.238 66.92 170.228 66.719C170.188 66.0154 170.529 65.342 171.142 64.9802L173.22 63.764ZM165.709 67.2919C165.709 70.85 162.827 73.7347 159.272 73.7347C155.717 73.7347 152.834 70.85 152.834 67.2919C152.834 63.7338 155.717 60.8492 159.272 60.8492C162.837 60.8391 165.709 63.7338 165.709 67.2919Z" fill="#EBEBEB"/>
<path d="M45.6525 261.881C32.5272 274.736 30.3279 294.637 33.0895 312.056C33.1598 312.448 33.7724 312.347 33.7724 311.975C33.7724 308.005 33.6519 304.075 33.6619 300.155C33.7322 299.974 33.7925 299.803 33.8628 299.633C37.2872 297.14 40.4405 294.326 42.3887 290.466C44.578 286.154 45.4416 281.289 47.1187 276.776C47.2693 276.344 46.8174 276.475 46.5161 276.696C38.5325 282.586 35.9918 288.928 33.7021 297.401C33.8126 292.999 34.144 288.607 35.088 284.204C36.8152 276.163 40.2296 268.193 45.9939 262.222C46.2149 261.991 45.8835 261.65 45.6525 261.881Z" fill="#263238"/>
<path d="M48.1229 263.378C50.3825 263.459 51.7984 267.067 53.5558 268.122C54.4898 268.685 55.3936 268.645 56.0463 267.73C57.7937 265.298 55.3936 262.293 53.1441 260.604C54.7509 261.268 56.0865 262.434 57.8238 262.755C58.8783 262.946 59.6917 262.554 59.9327 261.489C60.6959 258.172 56.5384 256.694 53.6763 256.624C55.0622 255.659 59.0289 253.046 56.92 251.759C54.781 250.463 50.1314 254.212 48.615 255.448C46.3856 257.257 43.7244 259.971 43.624 262.805C43.4934 266.102 46.3856 264.072 48.1229 263.378Z" fill="#F5735A"/>
<path opacity="0.1" d="M48.1229 263.378C50.3825 263.459 51.7984 267.067 53.5558 268.122C54.4898 268.685 55.3936 268.645 56.0463 267.73C57.7937 265.298 55.3936 262.293 53.1441 260.604C54.7509 261.268 56.0865 262.434 57.8238 262.755C58.8783 262.946 59.6917 262.554 59.9327 261.489C60.6959 258.172 56.5384 256.694 53.6763 256.624C55.0622 255.659 59.0289 253.046 56.92 251.759C54.781 250.463 50.1314 254.212 48.615 255.448C46.3856 257.257 43.7244 259.971 43.624 262.805C43.4934 266.102 46.3856 264.072 48.1229 263.378Z" fill="#F5735A"/>
<path d="M47.4702 263.931C50.3523 262.614 55.9057 264.504 56.3777 263.419C57.3318 261.197 52.9031 259.669 50.513 259.368C52.7123 258.775 56.9401 257.82 56.8096 255.689C56.6489 253.096 50.3322 255.327 47.1388 257.78C43.1118 260.866 43.1419 263.851 43.8047 264.454C44.7085 265.268 46.9881 264.152 47.4702 263.931Z" fill="#F5735A"/>
<path d="M15.7665 260.604C29.3739 272.957 32.3263 292.748 30.2275 310.267C30.1672 310.669 29.5546 310.578 29.5446 310.206C29.3939 306.246 29.3638 302.306 29.2031 298.396C29.1228 298.215 29.0626 298.055 28.9822 297.874C25.4674 295.512 22.2137 292.818 20.1148 289.039C17.7649 284.807 16.7105 279.983 14.8727 275.54C14.702 275.118 15.1639 275.229 15.4753 275.44C23.6799 281.028 26.4616 287.26 29.0726 295.642C28.8015 291.25 28.2993 286.868 27.1846 282.506C25.1561 274.535 21.4404 266.705 15.4451 260.956C15.2041 260.745 15.5255 260.383 15.7665 260.604Z" fill="#263238"/>
<path d="M13.3563 262.192C11.1068 262.353 9.82141 266.022 8.10417 267.137C7.20036 267.73 6.28651 267.73 5.60363 266.836C3.76588 264.464 6.04549 261.378 8.22468 259.609C6.63799 260.333 5.35257 261.549 3.63533 261.941C2.59092 262.172 1.75741 261.81 1.47622 260.755C0.582454 257.468 4.68977 255.83 7.5418 255.649C6.12583 254.734 2.05868 252.272 4.11736 250.905C6.20617 249.528 10.9964 253.096 12.563 254.272C14.8627 256.001 17.6243 258.604 17.8352 261.428C18.0863 264.745 15.1238 262.826 13.3563 262.192Z" fill="#F5735A"/>
<path opacity="0.1" d="M13.3563 262.192C11.1068 262.353 9.82141 266.022 8.10417 267.137C7.20036 267.73 6.28651 267.73 5.60363 266.836C3.76588 264.464 6.04549 261.378 8.22468 259.609C6.63799 260.333 5.35257 261.549 3.63533 261.941C2.59092 262.172 1.75741 261.81 1.47622 260.755C0.582454 257.468 4.68977 255.83 7.5418 255.649C6.12583 254.734 2.05868 252.272 4.11736 250.905C6.20617 249.528 10.9964 253.096 12.563 254.272C14.8627 256.001 17.6243 258.604 17.8352 261.428C18.0863 264.745 15.1238 262.826 13.3563 262.192Z" fill="#F5735A"/>
<path d="M14.0292 262.725C11.0968 261.519 5.62371 263.62 5.11155 262.544C4.06715 260.353 8.44561 258.664 10.8256 258.272C8.60629 257.76 4.34833 256.966 4.39855 254.835C4.4588 252.232 10.8558 254.222 14.1396 256.554C18.2771 259.489 18.3675 262.474 17.7247 263.097C16.841 263.961 14.5112 262.926 14.0292 262.725Z" fill="#F5735A"/>
<path d="M29.6751 293.22C30.6794 299.733 31.9246 306.457 33.903 312.749C34.0938 313.322 34.9373 313.171 34.857 312.558C33.9632 306.538 32.3364 300.638 31.4426 294.617C30.5388 288.526 30.0467 282.355 30.3982 276.193C30.9706 266.052 33.7222 255.267 40.3301 247.327C40.4707 247.136 40.1694 246.874 40.0188 247.045C26.7829 262.494 28.8918 281.43 28.9019 283.129C27.024 276.736 25.0958 269.399 18.0059 262.896C17.7047 262.614 17.4636 262.745 17.5139 263.228C18.7792 275.088 22.0731 281.279 28.942 287.622C29.1328 289.501 29.3739 291.371 29.6751 293.22Z" fill="#263238"/>
<path d="M40.4405 249.106C42.8206 248.05 46.1044 251.086 48.4644 251.287C49.7096 251.397 50.6335 250.905 50.8544 249.628C51.4369 246.221 47.4501 244.311 44.2667 243.698C46.2651 243.578 48.2334 244.11 50.2017 243.578C51.3867 243.246 52.0394 242.432 51.7583 241.196C50.8846 237.366 45.8232 237.929 42.8206 239.296C43.7746 237.597 46.5764 232.883 43.7344 232.612C40.8724 232.351 37.9199 238.572 36.9659 240.623C35.56 243.628 34.1641 247.779 35.4796 250.774C37.0161 254.272 38.9944 250.704 40.4405 249.106Z" fill="#F5735A"/>
<path opacity="0.1" d="M40.4405 249.106C42.8206 248.05 46.1044 251.086 48.4644 251.287C49.7096 251.397 50.6335 250.905 50.8544 249.628C51.4369 246.221 47.4501 244.311 44.2667 243.698C46.2651 243.578 48.2334 244.11 50.2017 243.578C51.3867 243.246 52.0394 242.432 51.7583 241.196C50.8846 237.366 45.8232 237.929 42.8206 239.296C43.7746 237.597 46.5764 232.883 43.7344 232.612C40.8724 232.351 37.9199 238.572 36.9659 240.623C35.56 243.628 34.1641 247.779 35.4796 250.774C37.0161 254.272 38.9944 250.704 40.4405 249.106Z" fill="#F5735A"/>
<path d="M40.0489 250.02C42.3787 247.206 49.087 246.372 49.0267 244.995C48.8962 242.201 43.5336 242.854 40.9025 243.749C42.8909 242.02 46.7873 238.904 45.5822 236.763C44.116 234.15 38.6831 239.648 36.5943 243.799C33.9733 249.035 35.4997 252.111 36.4838 252.403C37.8596 252.795 39.6572 250.483 40.0489 250.02Z" fill="#F5735A"/>
<path d="M20.9684 296.788L15.1338 341.435H50.6536C49.9205 337.475 43.3126 296.738 43.3126 296.738L20.9684 296.788Z" fill="#F5735A"/>
<path d="M0 341.586L51.8788 341.345L103.747 341.254L207.505 341.083L311.253 341.254L363.131 341.335L415 341.586L363.131 341.827L311.253 341.917L207.505 342.088L103.747 341.917L51.8788 341.827L0 341.586Z" fill="#263238"/>
<path d="M207.505 429.01C290.177 429.01 357.196 419.524 357.196 407.822C357.196 396.121 290.177 386.635 207.505 386.635C124.833 386.635 57.8138 396.121 57.8138 407.822C57.8138 419.524 124.833 429.01 207.505 429.01Z" fill="#EBEBEB"/>
<path d="M114.684 185.322L108.447 160.767L59.1996 173.291L52.6922 147.66L92.0482 57.8942L111.57 52.929L130.551 127.669L146.307 123.658L152.865 149.47L137.108 153.48L143.344 178.035L114.684 185.322ZM80.9413 140.283L105.294 134.091L97.2401 102.37L80.9413 140.283Z" fill="#263238"/>
<path d="M255.728 103.345C255.728 111.487 254.493 118.975 252.033 125.809C249.562 132.654 246.178 138.574 241.87 143.56C237.562 148.555 232.48 152.435 226.626 155.209C220.771 157.983 214.394 159.37 207.505 159.37C200.606 159.37 194.199 157.983 188.294 155.209C182.379 152.435 177.268 148.555 172.959 143.56C168.651 138.564 165.287 132.644 162.887 125.809C160.487 118.965 159.282 111.476 159.282 103.345C159.282 95.2038 160.487 87.7157 162.887 80.881C165.287 74.0362 168.641 68.1161 172.959 63.1308C177.268 58.1354 182.379 54.2256 188.294 51.3912C194.209 48.5568 200.606 47.1396 207.505 47.1396C214.404 47.1396 220.781 48.5568 226.626 51.3912C232.47 54.2256 237.552 58.1455 241.87 63.1308C246.178 68.1262 249.572 74.0463 252.033 80.881C254.493 87.7258 255.728 95.2138 255.728 103.345ZM225.973 103.345C225.973 94.7213 224.246 87.7157 220.801 82.3585C217.347 76.9913 212.918 74.3177 207.495 74.3177C201.831 74.3177 197.302 77.0013 193.918 82.3585C190.523 87.7258 188.836 94.7213 188.836 103.345C188.836 111.979 190.523 118.944 193.918 124.241C197.302 129.548 201.831 132.192 207.495 132.192C212.918 132.192 217.347 129.538 220.801 124.241C224.256 118.944 225.973 111.979 225.973 103.345Z" fill="#263238"/>
<path d="M308.772 180.588L312.819 155.581L262.658 147.449L266.885 121.347L338.698 54.6779L358.582 57.9043L346.26 134.031L362.308 136.634L358.05 162.918L342.002 160.315L337.955 185.322L308.772 180.588ZM295.737 125.829L320.542 129.85L325.774 97.5356L295.737 125.829Z" fill="#263238"/>
<path d="M166 29.319C163.891 29.319 161.973 28.9069 160.256 28.0827C158.539 27.2585 157.062 26.1629 155.837 24.796C154.602 23.4291 153.648 21.8711 152.975 20.1021C152.302 18.3432 151.961 16.5441 151.961 14.7047C151.961 12.785 152.322 10.9456 153.035 9.18668C153.748 7.42774 154.743 5.86982 155.998 4.51293C157.253 3.15603 158.749 2.08057 160.477 1.28653C162.204 0.492497 164.092 0.0904541 166.121 0.0904541C168.199 0.0904541 170.107 0.512599 171.825 1.36694C173.542 2.22128 175.008 3.33695 176.223 4.71395C177.438 6.09095 178.382 7.66896 179.065 9.4279C179.738 11.1868 180.079 12.9759 180.079 14.7851C180.079 16.7049 179.728 18.5442 179.025 20.2831C178.322 22.032 177.348 23.5698 176.103 24.9066C174.857 26.2434 173.371 27.3188 171.644 28.1129C169.906 28.9169 168.029 29.319 166 29.319ZM157.645 14.6947C157.645 15.941 157.836 17.1471 158.217 18.3131C158.599 19.479 159.141 20.5042 159.864 21.3987C160.577 22.2933 161.461 23.0069 162.505 23.5497C163.55 24.0924 164.725 24.3638 166.05 24.3638C167.406 24.3638 168.601 24.0824 169.635 23.5296C170.68 22.9768 171.553 22.233 172.276 21.3183C172.989 20.3936 173.532 19.3584 173.903 18.2125C174.265 17.0667 174.456 15.8907 174.456 14.7047C174.456 13.4584 174.255 12.2523 173.863 11.0863C173.472 9.92041 172.919 8.8952 172.196 8.00065C171.483 7.1061 170.599 6.39248 169.555 5.86982C168.511 5.34717 167.346 5.07579 166.05 5.07579C164.695 5.07579 163.499 5.35722 162.435 5.91003C161.381 6.46284 160.497 7.19656 159.794 8.10116C159.091 9.00576 158.559 10.041 158.187 11.1868C157.826 12.3327 157.645 13.5086 157.645 14.6947Z" fill="#263238"/>
<path d="M193.667 29.52C191.939 29.52 190.383 29.2185 188.997 28.6254C187.621 28.0324 186.446 27.2283 185.492 26.2132C184.528 25.198 183.795 24.0321 183.283 22.7054C182.771 21.3786 182.51 19.9815 182.51 18.5241C182.51 17.0366 182.771 15.6294 183.283 14.3027C183.795 12.9759 184.538 11.81 185.492 10.7948C186.456 9.77968 187.621 8.9756 188.997 8.38258C190.373 7.78957 191.929 7.48804 193.667 7.48804C195.394 7.48804 196.951 7.78957 198.316 8.38258C199.682 8.9756 200.847 9.77968 201.801 10.7948C202.765 11.81 203.498 12.9759 204.01 14.3027C204.522 15.6294 204.784 17.0366 204.784 18.5241C204.784 19.9815 204.522 21.3786 204.01 22.7054C203.498 24.0321 202.765 25.198 201.821 26.2132C200.877 27.2283 199.712 28.0324 198.336 28.6254C196.951 29.2185 195.394 29.52 193.667 29.52ZM188.113 18.5141C188.113 19.4589 188.254 20.3233 188.535 21.0972C188.816 21.8711 189.208 22.5345 189.71 23.1074C190.212 23.6803 190.795 24.1125 191.477 24.4241C192.15 24.7357 192.883 24.8864 193.667 24.8864C194.45 24.8864 195.183 24.7357 195.856 24.4241C196.529 24.1125 197.121 23.6703 197.623 23.1074C198.125 22.5345 198.517 21.8611 198.798 21.0771C199.08 20.2931 199.22 19.4287 199.22 18.4739C199.22 17.5592 199.08 16.7049 198.798 15.9209C198.517 15.1369 198.125 14.4635 197.623 13.8906C197.121 13.3177 196.539 12.8855 195.856 12.5739C195.183 12.2623 194.45 12.1115 193.667 12.1115C192.883 12.1115 192.15 12.2723 191.477 12.594C190.805 12.9156 190.212 13.3679 189.71 13.9308C189.208 14.5037 188.816 15.1771 188.535 15.9611C188.254 16.7451 188.113 17.5994 188.113 18.5141Z" fill="#263238"/>
<path d="M221.173 29.52C219.496 29.52 218.039 29.1481 216.794 28.4043C215.549 27.6606 214.575 26.6554 213.872 25.379V37.7619H208.439V7.83984H213.189V11.4984C213.972 10.2521 214.987 9.27714 216.232 8.55346C217.477 7.83984 218.913 7.478 220.53 7.478C221.966 7.478 223.292 7.76948 224.507 8.35244C225.722 8.9354 226.776 9.71939 227.65 10.7044C228.534 11.6894 229.217 12.8553 229.719 14.1921C230.221 15.5289 230.472 16.9461 230.472 18.4337C230.472 19.9715 230.241 21.4289 229.779 22.7757C229.317 24.1326 228.674 25.3086 227.851 26.3037C227.027 27.3088 226.043 28.0928 224.908 28.6556C223.774 29.2386 222.528 29.52 221.173 29.52ZM219.345 24.8865C220.158 24.8865 220.902 24.7156 221.594 24.3538C222.287 24.002 222.87 23.5296 223.362 22.9366C223.844 22.3435 224.226 21.65 224.497 20.866C224.768 20.082 224.898 19.2679 224.898 18.4337C224.898 17.5391 224.748 16.7049 224.457 15.941C224.155 15.1671 223.744 14.5037 223.221 13.9308C222.689 13.3579 222.076 12.9156 221.353 12.594C220.64 12.2724 219.857 12.1115 219.024 12.1115C218.511 12.1115 217.979 12.202 217.437 12.3729C216.895 12.5538 216.393 12.795 215.931 13.1267C215.469 13.4483 215.057 13.8303 214.695 14.2625C214.334 14.6947 214.053 15.1671 213.862 15.6797V20.6751C214.354 21.8912 215.097 22.9064 216.091 23.7004C217.106 24.4945 218.18 24.8865 219.345 24.8865Z" fill="#263238"/>
<path d="M242.181 29.52C240.394 29.52 238.656 29.2386 236.949 28.6657C235.242 28.0928 233.786 27.2887 232.571 26.2333L234.599 22.826C235.895 23.7507 237.16 24.4442 238.395 24.9166C239.63 25.389 240.846 25.6302 242.071 25.6302C243.155 25.6302 243.999 25.4292 244.622 25.0171C245.244 24.6151 245.555 24.0321 245.555 23.2682C245.555 22.5144 245.194 21.9515 244.461 21.5998C243.728 21.248 242.543 20.8459 240.896 20.3836C239.52 20.0016 238.345 19.6398 237.371 19.288C236.397 18.9362 235.614 18.5342 235.021 18.0919C234.429 17.6497 233.997 17.127 233.726 16.5541C233.454 15.9712 233.324 15.2776 233.324 14.4635C233.324 13.378 233.535 12.403 233.957 11.5386C234.378 10.6742 234.961 9.93046 235.724 9.3274C236.477 8.71428 237.371 8.25193 238.385 7.9303C239.4 7.60866 240.504 7.44785 241.689 7.44785C243.286 7.44785 244.782 7.67902 246.168 8.14137C247.564 8.60372 248.839 9.3475 250.004 10.3727L247.815 13.6594C246.73 12.8453 245.686 12.2523 244.672 11.8703C243.657 11.4884 242.653 11.2974 241.649 11.2974C240.725 11.2974 239.962 11.4884 239.339 11.8703C238.717 12.2523 238.405 12.8553 238.405 13.6996C238.405 14.0816 238.476 14.3931 238.626 14.6344C238.777 14.8756 239.008 15.0967 239.339 15.2877C239.661 15.4787 240.092 15.6596 240.615 15.8405C241.147 16.0214 241.8 16.2023 242.583 16.3933C244.039 16.7752 245.294 17.1471 246.339 17.5291C247.383 17.911 248.227 18.3432 248.89 18.8257C249.552 19.3081 250.034 19.871 250.356 20.5142C250.667 21.1475 250.818 21.9113 250.818 22.8059C250.818 24.8865 250.044 26.5348 248.508 27.741C246.931 28.9169 244.832 29.52 242.181 29.52Z" fill="#263238"/>
<path d="M255.367 18.2729V0H260.8V18.2729H255.367ZM255.367 29.1079V22.9768H260.8V29.1079H255.367Z" fill="#263238"/>
<path d="M228.182 271.932H192.522V274.857H228.182V271.932Z" fill="#37474F"/>
<path d="M228.182 275.741H192.522V278.666H228.182V275.741Z" fill="#37474F"/>
<path d="M228.182 279.551H192.522V282.475H228.182V279.551Z" fill="#37474F"/>
<path d="M228.182 283.36H192.522V286.285H228.182V283.36Z" fill="#37474F"/>
<path d="M228.182 287.169H192.522V290.094H228.182V287.169Z" fill="#37474F"/>
<path d="M243.627 363.145H175.821V366.07H243.627V363.145Z" fill="#37474F"/>
<path d="M243.627 366.955H175.821V369.88H243.627V366.955Z" fill="#37474F"/>
<path d="M243.627 370.764H175.821V373.689H243.627V370.764Z" fill="#37474F"/>
<path d="M243.627 374.573H175.821V377.498H243.627V374.573Z" fill="#37474F"/>
<path d="M243.627 378.383H175.821V381.308H243.627V378.383Z" fill="#37474F"/>
<path d="M146.076 247.759C146.106 247.367 131.233 242.382 131.233 242.382L132.107 191.232L151.83 187L146.076 247.759Z" fill="#F5735A"/>
<path opacity="0.2" d="M146.076 247.759C146.106 247.367 131.233 242.382 131.233 242.382L132.107 191.232L151.83 187L146.076 247.759Z" fill="black"/>
<path d="M282.31 267.841C282.411 267.459 298.097 267.901 298.097 267.901L314.858 219.576L297.796 208.811L282.31 267.841Z" fill="#F5735A"/>
<path opacity="0.2" d="M282.31 267.841C282.411 267.459 298.097 267.901 298.097 267.901L314.858 219.576L297.796 208.811L282.31 267.841Z" fill="black"/>
<path d="M143.214 266.595C143.214 266.595 148.727 183.874 153.568 156.666C153.568 156.666 253.409 164.225 307.306 184.839C307.306 184.839 279.519 281.46 278.083 286.255C278.073 286.255 207.766 272.394 143.214 266.595Z" fill="#F5735A"/>
<path opacity="0.1" d="M232.33 167.712C230.703 177.673 229.066 187.633 227.369 197.574L222.227 227.406L221.946 226.983L255.397 234.934L272.107 238.984L288.798 243.115L272.017 239.356L255.256 235.517L221.775 227.687L221.434 227.607L221.494 227.265L226.826 197.463C228.614 187.553 230.462 177.633 232.33 167.712Z" fill="black"/>
<path opacity="0.1" d="M228.654 173.391C228.674 174.306 227.941 175.241 226.897 175.331C226.395 175.381 225.842 175.22 225.431 174.859C225.019 174.497 224.768 173.944 224.768 173.391C224.768 172.828 225.019 172.275 225.431 171.924C225.842 171.562 226.395 171.401 226.897 171.451C227.951 171.542 228.674 172.476 228.654 173.391ZM228.654 173.391C228.654 172.929 228.443 172.476 228.102 172.185C227.76 171.893 227.309 171.773 226.897 171.823C226.053 171.924 225.511 172.677 225.521 173.391C225.511 174.105 226.053 174.859 226.897 174.959C227.309 175.009 227.76 174.889 228.102 174.597C228.453 174.306 228.654 173.853 228.654 173.391Z" fill="black"/>
<path opacity="0.1" d="M226.907 185.694C226.927 186.608 226.194 187.543 225.149 187.633C224.647 187.684 224.095 187.523 223.683 187.161C223.272 186.799 223.02 186.246 223.02 185.694C223.02 185.131 223.272 184.578 223.683 184.226C224.095 183.864 224.647 183.704 225.149 183.754C226.194 183.844 226.927 184.789 226.907 185.694ZM226.907 185.694C226.907 185.231 226.696 184.779 226.355 184.487C226.013 184.196 225.561 184.075 225.149 184.126C224.306 184.226 223.764 184.98 223.774 185.694C223.764 186.407 224.306 187.161 225.149 187.262C225.561 187.312 226.013 187.191 226.355 186.9C226.696 186.608 226.897 186.156 226.907 185.694Z" fill="black"/>
<path opacity="0.1" d="M224.748 198.7C224.768 199.614 224.035 200.549 222.99 200.64C222.488 200.69 221.936 200.529 221.524 200.167C221.112 199.805 220.861 199.253 220.861 198.7C220.861 198.147 221.112 197.584 221.524 197.232C221.936 196.87 222.488 196.71 222.99 196.76C224.035 196.85 224.768 197.795 224.748 198.7ZM224.748 198.7C224.748 198.237 224.537 197.785 224.195 197.494C223.854 197.202 223.402 197.081 222.99 197.132C222.147 197.232 221.604 197.986 221.615 198.7C221.604 199.413 222.147 200.167 222.99 200.268C223.402 200.318 223.854 200.197 224.195 199.906C224.537 199.614 224.738 199.162 224.748 198.7Z" fill="black"/>
<path opacity="0.1" d="M222.589 211.706C222.609 212.62 221.876 213.555 220.831 213.646C220.329 213.696 219.777 213.535 219.365 213.173C218.953 212.811 218.702 212.259 218.702 211.706C218.702 211.153 218.953 210.59 219.365 210.238C219.777 209.877 220.329 209.716 220.831 209.766C221.876 209.856 222.609 210.791 222.589 211.706ZM222.589 211.706C222.589 211.243 222.378 210.791 222.036 210.5C221.695 210.208 221.243 210.088 220.831 210.138C219.988 210.238 219.445 210.992 219.455 211.706C219.445 212.419 219.988 213.173 220.831 213.274C221.243 213.324 221.695 213.203 222.036 212.912C222.378 212.62 222.579 212.168 222.589 211.706Z" fill="black"/>
<path opacity="0.1" d="M229.94 232.451C229.96 233.366 229.227 234.301 228.182 234.391C227.68 234.441 227.128 234.281 226.716 233.919C226.304 233.557 226.053 233.004 226.053 232.451C226.053 231.888 226.304 231.336 226.716 230.984C227.128 230.622 227.68 230.461 228.182 230.511C229.237 230.592 229.96 231.537 229.94 232.451ZM229.94 232.451C229.94 231.989 229.729 231.537 229.387 231.245C229.046 230.954 228.594 230.833 228.182 230.883C227.339 230.984 226.796 231.738 226.806 232.451C226.796 233.165 227.339 233.919 228.182 234.019C228.594 234.069 229.046 233.949 229.387 233.657C229.739 233.356 229.94 232.904 229.94 232.451Z" fill="black"/>
<path opacity="0.1" d="M242.211 235.446C242.231 236.361 241.498 237.296 240.454 237.386C239.952 237.437 239.4 237.276 238.988 236.914C238.576 236.552 238.325 235.999 238.325 235.446C238.325 234.884 238.576 234.331 238.988 233.979C239.4 233.617 239.952 233.456 240.454 233.507C241.498 233.587 242.221 234.532 242.211 235.446ZM242.211 235.446C242.211 234.984 242 234.532 241.659 234.24C241.318 233.949 240.866 233.828 240.454 233.878C239.61 233.979 239.068 234.733 239.078 235.446C239.068 236.16 239.61 236.914 240.454 237.014C240.866 237.065 241.318 236.944 241.659 236.653C242 236.351 242.201 235.899 242.211 235.446Z" fill="black"/>
<path opacity="0.1" d="M254.473 238.442C254.493 239.356 253.76 240.291 252.716 240.382C252.214 240.432 251.661 240.271 251.249 239.909C250.838 239.547 250.587 238.994 250.587 238.442C250.587 237.879 250.838 237.326 251.249 236.974C251.661 236.612 252.214 236.452 252.716 236.502C253.76 236.582 254.493 237.527 254.473 238.442ZM254.473 238.442C254.473 237.979 254.262 237.527 253.921 237.236C253.579 236.944 253.127 236.823 252.716 236.874C251.872 236.974 251.33 237.728 251.34 238.442C251.33 239.155 251.872 239.909 252.716 240.01C253.127 240.06 253.579 239.939 253.921 239.648C254.262 239.346 254.473 238.894 254.473 238.442Z" fill="black"/>
<path opacity="0.1" d="M266.735 241.427C266.755 242.342 266.022 243.276 264.977 243.367C264.475 243.417 263.923 243.256 263.511 242.894C263.099 242.532 262.848 241.98 262.848 241.427C262.848 240.864 263.099 240.311 263.511 239.959C263.923 239.598 264.475 239.437 264.977 239.487C266.032 239.577 266.755 240.522 266.735 241.427ZM266.735 241.427C266.735 240.965 266.524 240.512 266.182 240.221C265.841 239.929 265.389 239.809 264.977 239.859C264.134 239.959 263.592 240.713 263.602 241.427C263.592 242.14 264.134 242.894 264.977 242.995C265.389 243.045 265.841 242.924 266.182 242.633C266.534 242.342 266.735 241.889 266.735 241.427Z" fill="black"/>
<path opacity="0.1" d="M278.997 244.563C278.946 245.477 278.143 246.352 277.098 246.362C276.586 246.372 276.054 246.171 275.672 245.779C275.291 245.387 275.09 244.824 275.13 244.261C275.18 243.708 275.462 243.176 275.903 242.844C276.345 242.512 276.908 242.402 277.41 242.482C278.434 242.663 279.087 243.648 278.997 244.563ZM278.997 244.563C279.027 244.1 278.856 243.638 278.545 243.316C278.223 243.005 277.781 242.844 277.37 242.864C276.526 242.894 275.924 243.608 275.873 244.322C275.803 245.025 276.295 245.829 277.129 245.99C277.53 246.07 277.992 245.98 278.354 245.719C278.725 245.457 278.956 245.015 278.997 244.563Z" fill="black"/>
<path opacity="0.1" d="M220.43 224.712C220.45 225.627 219.717 226.561 218.672 226.652C218.17 226.702 217.618 226.541 217.206 226.179C216.794 225.818 216.543 225.265 216.543 224.712C216.543 224.159 216.794 223.596 217.206 223.244C217.618 222.883 218.17 222.722 218.672 222.772C219.717 222.863 220.45 223.797 220.43 224.712ZM220.43 224.712C220.43 224.25 220.219 223.797 219.877 223.506C219.536 223.214 219.084 223.094 218.672 223.144C217.829 223.244 217.286 223.998 217.296 224.712C217.286 225.426 217.829 226.179 218.672 226.28C219.084 226.33 219.536 226.21 219.877 225.918C220.219 225.627 220.419 225.174 220.43 224.712Z" fill="black"/>
<path opacity="0.2" d="M199.769 246.256C211.411 235.779 212.363 217.839 201.895 206.186C191.427 194.533 173.502 193.581 161.86 204.058C150.217 214.535 149.265 232.475 159.733 244.128C170.202 255.781 188.126 256.733 199.769 246.256Z" fill="black"/>
<path d="M202.069 233.215C206.514 221.462 200.598 208.327 188.855 203.878C177.112 199.43 163.988 205.351 159.543 217.104C155.098 228.857 161.015 241.992 172.758 246.441C184.501 250.889 197.624 244.968 202.069 233.215Z" fill="#263238"/>
<path d="M179.441 216.794L174.127 215.932L173.267 221.25L178.58 222.112L179.441 216.794Z" fill="#F5735A"/>
<path d="M174.992 210.614L169.679 209.752L168.818 215.07L174.131 215.931L174.992 210.614Z" fill="#F5735A"/>
<path d="M196.251 214.06L190.938 213.199L190.077 218.517L195.39 219.378L196.251 214.06Z" fill="#F5735A"/>
<path d="M171.568 231.771L166.255 230.909L165.394 236.227L170.708 237.089L171.568 231.771Z" fill="#F5735A"/>
<path d="M192.827 235.217L187.514 234.356L186.654 239.674L191.967 240.535L192.827 235.217Z" fill="#F5735A"/>
<path d="M177.743 227.318L172.43 226.456L171.569 231.774L176.883 232.636L177.743 227.318Z" fill="#F5735A"/>
<path d="M183.91 222.915L178.596 222.054L177.736 227.372L183.049 228.233L183.91 222.915Z" fill="#F5735A"/>
<path d="M190.074 218.523L184.761 217.662L183.901 222.979L189.214 223.841L190.074 218.523Z" fill="#F5735A"/>
<path d="M188.373 229.033L183.06 228.171L182.199 233.489L187.513 234.351L188.373 229.033Z" fill="#F5735A"/>
<path d="M278.834 255.024C288.757 242.903 286.984 225.026 274.873 215.093C262.763 205.161 244.9 206.936 234.977 219.057C225.054 231.179 226.827 249.056 238.937 258.988C251.048 268.92 268.91 267.146 278.834 255.024Z" fill="#F5735A"/>
<path opacity="0.2" d="M278.834 255.024C288.757 242.903 286.984 225.026 274.873 215.093C262.763 205.161 244.9 206.936 234.977 219.057C225.054 231.179 226.827 249.056 238.937 258.988C251.048 268.92 268.91 267.146 278.834 255.024Z" fill="black"/>
<path opacity="0.2" d="M284.49 243.618C284.359 244.181 284.208 244.714 284.048 245.256L228.785 233.456C228.915 232.471 229.096 231.486 229.327 230.481C232.942 215.234 248.227 205.816 263.471 209.434C278.685 213.063 288.105 228.36 284.49 243.618Z" fill="black"/>
<path d="M265.665 258.054C277.251 253.209 282.72 239.881 277.879 228.285C273.038 216.689 259.722 211.216 248.136 216.061C236.55 220.905 231.082 234.233 235.922 245.83C240.763 257.426 254.079 262.899 265.665 258.054Z" fill="#263238"/>
<path d="M262.625 224.618L257.388 223.372L251.191 249.472L256.428 250.717L262.625 224.618Z" fill="#F5735A"/>
<path d="M286.127 243.085L228.082 229.275C231.888 213.234 247.976 203.323 264.003 207.133C280.031 210.952 289.943 227.044 286.127 243.085Z" fill="#F5735A"/>
<path opacity="0.2" d="M286.127 243.085L228.082 229.275C231.888 213.234 247.976 203.323 264.003 207.133C280.031 210.952 289.943 227.044 286.127 243.085Z" fill="black"/>
<path opacity="0.1" d="M207.575 253.92C207.726 251.649 208.559 249.347 210.196 247.528C211.01 246.613 212.084 245.89 213.279 245.457C214.474 245.015 215.77 244.935 216.995 245.045C218.24 245.196 219.516 245.628 220.56 246.422C221.584 247.226 222.358 248.272 222.82 249.407C223.764 251.659 223.874 254.061 223.412 256.292C223.03 254.061 222.458 251.9 221.414 250.121C220.379 248.332 218.732 247.216 216.784 247.045C214.786 246.794 212.848 247.337 211.281 248.654C209.704 249.97 208.509 251.86 207.575 253.92Z" fill="black"/>
<path d="M150.977 196.046C151.208 193.011 151.549 189.995 151.84 186.97C152.162 183.955 152.493 180.929 152.865 177.924C153.216 174.909 153.608 171.904 153.989 168.888C154.371 165.873 154.803 162.878 155.204 159.862L155.315 159.058L156.128 159.109C162.666 159.521 169.193 160.053 175.711 160.717C178.975 161.048 182.228 161.43 185.472 161.852C188.716 162.315 191.969 162.747 195.193 163.34L175.59 162.124L156.008 160.857L156.932 160.104C156.49 163.109 156.078 166.114 155.606 169.109C155.144 172.105 154.682 175.11 154.19 178.105C153.708 181.1 153.196 184.095 152.664 187.081C152.101 190.066 151.589 193.061 150.977 196.046Z" fill="white"/>
<path d="M155.697 218.973C156.359 215.324 158.006 211.857 160.236 208.831C160.788 208.067 161.421 207.364 162.023 206.64C162.676 205.967 163.359 205.303 164.032 204.64C164.765 204.047 165.508 203.454 166.261 202.881C167.064 202.368 167.848 201.846 168.661 201.353C169.515 200.941 170.368 200.519 171.232 200.127L173.923 199.192L176.715 198.619C177.649 198.479 178.603 198.448 179.537 198.378C183.313 198.278 187.039 199.092 190.453 200.469C186.818 199.785 183.192 199.413 179.627 199.755C176.062 200.087 172.608 201.152 169.515 202.901C166.392 204.6 163.64 206.952 161.3 209.686C158.98 212.429 157.052 215.535 155.697 218.973Z" fill="white"/>
<path d="M233.896 226.642C235.051 223.124 237.17 219.907 239.791 217.224C240.444 216.55 241.167 215.937 241.86 215.304C242.603 214.721 243.366 214.168 244.129 213.605C244.943 213.113 245.756 212.63 246.58 212.168C247.443 211.776 248.297 211.364 249.171 210.992C250.075 210.701 250.978 210.399 251.892 210.128L254.684 209.575L257.526 209.394C258.47 209.384 259.414 209.495 260.358 209.555C264.114 209.977 267.689 211.294 270.882 213.133C267.377 211.957 263.843 211.083 260.257 210.922C256.682 210.761 253.107 211.334 249.803 212.641C246.479 213.897 243.416 215.847 240.735 218.219C238.054 220.611 235.724 223.425 233.896 226.642Z" fill="white"/>
<path d="M146.387 317.574C139.127 317.574 123.23 315.935 112.996 302.769C99.9113 285.923 104.641 253.609 104.842 252.232L110.526 253.096C110.476 253.408 105.967 284.345 117.536 299.231C128.843 313.785 149.36 311.694 149.571 311.674L150.213 317.393C149.982 317.423 148.577 317.574 146.387 317.574Z" fill="#F5735A"/>
<path opacity="0.4" d="M146.387 317.574C139.127 317.574 123.23 315.935 112.996 302.769C99.9113 285.923 104.641 253.609 104.842 252.232L110.526 253.096C110.476 253.408 105.967 284.345 117.536 299.231C128.843 313.785 149.36 311.694 149.571 311.674L150.213 317.393C149.982 317.423 148.577 317.574 146.387 317.574Z" fill="white"/>
<path d="M112.193 257.016C111.159 257.016 110.094 256.926 109.02 256.755C99.4293 255.197 95.1914 249.458 93.3135 244.915C91.4356 240.361 91.0037 234.853 92.0281 228.541L104.189 230.511C103.557 234.421 103.737 237.859 104.712 240.211C105.404 241.879 106.74 243.889 110.998 244.583C112.946 244.894 115.045 244.734 117.254 241.407C118.952 238.844 119.976 235.346 120.337 233.135L132.499 235.105C132.218 236.844 131.022 242.935 127.528 248.221C123.702 253.971 118.349 257.016 112.193 257.016Z" fill="#F5735A"/>
<path d="M158.398 334.037C158.378 333.776 148.094 332.128 148.094 332.128L143.103 298.547L155.556 293.622L158.398 334.037Z" fill="#F5735A"/>
<path opacity="0.2" d="M158.398 334.037C158.378 333.776 148.094 332.128 148.094 332.128L143.103 298.547L155.556 293.622L158.398 334.037Z" fill="black"/>
<path d="M260.016 334.098C260.047 333.836 270.36 332.419 270.36 332.419L276.094 298.959L263.752 293.763L260.016 334.098Z" fill="#F5735A"/>
<path opacity="0.2" d="M260.016 334.098C260.047 333.836 270.36 332.419 270.36 332.419L276.094 298.959L263.752 293.763L260.016 334.098Z" fill="black"/>
<path d="M154.12 286.114C154.12 286.114 237.26 282.556 265.339 287.24C265.339 287.24 257.094 367.759 256.642 369.317C256.642 369.317 173.943 369.096 161.019 369.317C161.019 369.317 154.009 315.775 154.12 286.114Z" fill="#F5735A"/>
<path opacity="0.2" d="M179.366 308.176C179.366 308.176 224.748 306.387 240.082 308.749C240.082 308.749 235.583 349.345 235.332 350.139C235.332 350.139 190.182 350.029 183.132 350.139C183.132 350.129 180.039 322.348 179.366 308.176Z" fill="black"/>
<path opacity="0.2" d="M185.573 350.119C184.538 350.119 183.705 350.129 183.132 350.139C183.132 350.139 180.039 322.348 179.366 308.176C179.366 308.176 180.401 308.136 182.198 308.076L185.573 350.119Z" fill="black"/>
<path d="M198.959 318.197C196.418 317.393 193.707 318.81 192.903 321.353C192.1 323.906 193.516 326.61 196.057 327.414C198.597 328.218 201.309 326.801 202.102 324.258C202.916 321.715 201.5 319.001 198.959 318.197ZM201.55 324.077C200.847 326.318 198.467 327.555 196.237 326.851C194.008 326.147 192.763 323.765 193.466 321.524C194.169 319.293 196.549 318.046 198.788 318.75C201.018 319.463 202.253 321.845 201.55 324.077ZM198.959 318.197C196.418 317.393 193.707 318.81 192.903 321.353C192.1 323.906 193.516 326.61 196.057 327.414C198.597 328.218 201.309 326.801 202.102 324.258C202.916 321.715 201.5 319.001 198.959 318.197ZM201.55 324.077C200.847 326.318 198.467 327.555 196.237 326.851C194.008 326.147 192.763 323.765 193.466 321.524C194.169 319.293 196.549 318.046 198.788 318.75C201.018 319.463 202.253 321.845 201.55 324.077ZM198.959 318.197C196.418 317.393 193.707 318.81 192.903 321.353C192.1 323.906 193.516 326.61 196.057 327.414C198.597 328.218 201.309 326.801 202.102 324.258C202.916 321.715 201.5 319.001 198.959 318.197ZM201.55 324.077C200.847 326.318 198.467 327.555 196.237 326.851C194.008 326.147 192.763 323.765 193.466 321.524C194.169 319.293 196.549 318.046 198.788 318.75C201.018 319.463 202.253 321.845 201.55 324.077ZM200.566 313.091C195.203 311.402 189.489 314.388 187.802 319.745C186.115 325.112 189.087 330.831 194.45 332.52C199.803 334.208 205.527 331.233 207.214 325.866C208.901 320.499 205.928 314.78 200.566 313.091ZM202.825 324.479C201.901 327.414 198.768 329.052 195.826 328.127C192.893 327.203 191.256 324.067 192.18 321.122C193.104 318.187 196.248 316.549 199.18 317.473C202.112 318.408 203.749 321.544 202.825 324.479ZM202.112 324.258C202.916 321.715 201.5 319.001 198.959 318.197C196.418 317.393 193.707 318.81 192.903 321.353C192.1 323.906 193.516 326.61 196.057 327.414C198.597 328.218 201.309 326.801 202.112 324.258ZM201.55 324.077C200.847 326.318 198.467 327.555 196.237 326.851C194.008 326.147 192.763 323.765 193.466 321.524C194.169 319.293 196.549 318.046 198.788 318.75C201.018 319.463 202.253 321.845 201.55 324.077ZM198.959 318.197C196.418 317.393 193.707 318.81 192.903 321.353C192.1 323.906 193.516 326.61 196.057 327.414C198.597 328.218 201.309 326.801 202.102 324.258C202.916 321.715 201.5 319.001 198.959 318.197ZM201.55 324.077C200.847 326.318 198.467 327.555 196.237 326.851C194.008 326.147 192.763 323.765 193.466 321.524C194.169 319.293 196.549 318.046 198.788 318.75C201.018 319.463 202.253 321.845 201.55 324.077ZM198.959 318.197C196.418 317.393 193.707 318.81 192.903 321.353C192.1 323.906 193.516 326.61 196.057 327.414C198.597 328.218 201.309 326.801 202.102 324.258C202.916 321.715 201.5 319.001 198.959 318.197ZM201.55 324.077C200.847 326.318 198.467 327.555 196.237 326.851C194.008 326.147 192.763 323.765 193.466 321.524C194.169 319.293 196.549 318.046 198.788 318.75C201.018 319.463 202.253 321.845 201.55 324.077Z" fill="#F5735A"/>
<path d="M196.438 332.701L192.713 331.525L192.09 334.228L195.404 335.284L196.438 332.701Z" fill="#F5735A"/>
<path d="M189.74 329.203L187.932 325.735L185.573 327.203L187.179 330.288L189.74 329.203Z" fill="#F5735A"/>
<path d="M187.471 321.986L188.645 318.247L185.934 317.624L184.89 320.941L187.471 321.986Z" fill="#F5735A"/>
<path d="M190.965 315.272L194.43 313.463L192.964 311.101L189.871 312.719L190.965 315.272Z" fill="#F5735A"/>
<path d="M198.176 313.001L201.901 314.177L202.534 311.473L199.21 310.417L198.176 313.001Z" fill="#F5735A"/>
<path d="M204.884 316.498L206.692 319.976L209.042 318.498L207.435 315.413L204.884 316.498Z" fill="#F5735A"/>
<path d="M207.154 323.715L205.979 327.454L208.68 328.077L209.724 324.76L207.154 323.715Z" fill="#F5735A"/>
<path d="M203.659 330.429L200.184 332.238L201.66 334.6L204.743 332.992L203.659 330.429Z" fill="#F5735A"/>
<path d="M215.368 332.409C213.862 331.424 211.853 331.856 210.869 333.364C209.885 334.872 210.317 336.882 211.823 337.867C213.33 338.852 215.338 338.42 216.322 336.912C217.296 335.404 216.875 333.384 215.368 332.409ZM215.991 336.691C215.127 338.018 213.36 338.39 212.044 337.525C210.719 336.661 210.347 334.892 211.211 333.575C212.074 332.248 213.842 331.877 215.157 332.741C216.473 333.605 216.844 335.364 215.991 336.691ZM215.368 332.409C213.862 331.424 211.853 331.856 210.869 333.364C209.885 334.872 210.317 336.882 211.823 337.867C213.33 338.852 215.338 338.42 216.322 336.912C217.296 335.404 216.875 333.384 215.368 332.409ZM215.991 336.691C215.127 338.018 213.36 338.39 212.044 337.525C210.719 336.661 210.347 334.892 211.211 333.575C212.074 332.248 213.842 331.877 215.157 332.741C216.473 333.605 216.844 335.364 215.991 336.691ZM215.368 332.409C213.862 331.424 211.853 331.856 210.869 333.364C209.885 334.872 210.317 336.882 211.823 337.867C213.33 338.852 215.338 338.42 216.322 336.912C217.296 335.404 216.875 333.384 215.368 332.409ZM215.991 336.691C215.127 338.018 213.36 338.39 212.044 337.525C210.719 336.661 210.347 334.892 211.211 333.575C212.074 332.248 213.842 331.877 215.157 332.741C216.473 333.605 216.844 335.364 215.991 336.691ZM217.336 329.384C214.163 327.313 209.925 328.218 207.857 331.384C205.798 334.56 206.692 338.802 209.855 340.872C213.018 342.933 217.266 342.038 219.335 338.862C221.394 335.706 220.5 331.454 217.336 329.384ZM216.744 337.183C215.609 338.922 213.279 339.415 211.552 338.289C209.815 337.153 209.323 334.821 210.457 333.093C211.592 331.354 213.922 330.861 215.649 331.997C217.377 333.113 217.869 335.445 216.744 337.183ZM216.322 336.912C217.306 335.404 216.875 333.394 215.378 332.409C213.872 331.424 211.863 331.856 210.879 333.364C209.895 334.872 210.327 336.882 211.833 337.867C213.33 338.842 215.338 338.41 216.322 336.912ZM215.991 336.691C215.127 338.018 213.36 338.39 212.044 337.525C210.719 336.661 210.347 334.892 211.211 333.575C212.074 332.248 213.842 331.877 215.157 332.741C216.473 333.605 216.844 335.364 215.991 336.691ZM215.368 332.409C213.862 331.424 211.853 331.856 210.869 333.364C209.885 334.872 210.317 336.882 211.823 337.867C213.33 338.852 215.338 338.42 216.322 336.912C217.296 335.404 216.875 333.384 215.368 332.409ZM215.991 336.691C215.127 338.018 213.36 338.39 212.044 337.525C210.719 336.661 210.347 334.892 211.211 333.575C212.074 332.248 213.842 331.877 215.157 332.741C216.473 333.605 216.844 335.364 215.991 336.691ZM215.368 332.409C213.862 331.424 211.853 331.856 210.869 333.364C209.885 334.872 210.317 336.882 211.823 337.867C213.33 338.852 215.338 338.42 216.322 336.912C217.296 335.404 216.875 333.384 215.368 332.409ZM215.991 336.691C215.127 338.018 213.36 338.39 212.044 337.525C210.719 336.661 210.347 334.892 211.211 333.575C212.074 332.248 213.842 331.877 215.157 332.741C216.473 333.605 216.844 335.364 215.991 336.691Z" fill="#DBDBDB"/>
<path d="M211.12 341.355L208.911 339.917L208.017 341.566L209.975 342.842L211.12 341.355Z" fill="#DBDBDB"/>
<path d="M207.395 337.877L206.852 335.294L205.065 335.827L205.547 338.118L207.395 337.877Z" fill="#DBDBDB"/>
<path d="M207.234 332.781L208.67 330.57L207.023 329.675L205.748 331.645L207.234 332.781Z" fill="#DBDBDB"/>
<path d="M210.709 329.062L213.289 328.519L212.757 326.72L210.468 327.213L210.709 329.062Z" fill="#DBDBDB"/>
<path d="M215.8 328.891L218.009 330.339L218.903 328.69L216.935 327.414L215.8 328.891Z" fill="#DBDBDB"/>
<path d="M219.516 332.379L220.058 334.952L221.856 334.429L221.374 332.138L219.516 332.379Z" fill="#DBDBDB"/>
<path d="M219.686 337.475L218.25 339.676L219.887 340.571L221.163 338.611L219.686 337.475Z" fill="#DBDBDB"/>
<path d="M216.202 341.194L213.631 341.737L214.153 343.536L216.443 343.043L216.202 341.194Z" fill="#DBDBDB"/>
<path d="M263.33 359.949L266.524 360.542L275.662 298.597L272.027 297.934L263.33 359.949Z" fill="#F5735A"/>
<path d="M235.342 350.129L240.092 308.739L272.027 297.924C272.027 297.924 263.33 360.612 263.33 359.939L235.342 350.129Z" fill="#F5735A"/>
<path opacity="0.4" d="M235.342 350.129L240.092 308.739L272.027 297.924C272.027 297.924 263.33 360.612 263.33 359.939L235.342 350.129Z" fill="white"/>
<path d="M157.936 310.417C157.414 306.99 157.133 303.532 156.922 300.075C156.821 298.346 156.781 296.607 156.741 294.878C156.711 293.15 156.681 291.411 156.731 289.682L156.741 289.23L157.183 289.21C163.53 288.868 169.866 288.456 176.213 288.174C182.56 287.863 188.907 287.571 195.253 287.38C188.927 287.953 182.59 288.446 176.253 288.898C169.917 289.391 163.58 289.752 157.243 290.185L157.695 289.702L157.665 294.878L157.725 300.055C157.735 301.784 157.765 303.512 157.815 305.241L157.936 310.417Z" fill="white"/>
<path d="M244.541 309.352C246.52 308.407 248.528 307.533 250.567 306.729C252.595 305.905 254.644 305.121 256.713 304.407C258.781 303.703 260.86 303.01 262.979 302.417C265.088 301.824 267.217 301.271 269.396 300.919L269.928 300.829L269.828 301.341C269.326 304.025 268.803 306.699 268.181 309.362C268.412 306.638 268.743 303.935 269.095 301.231L269.537 301.653C267.428 302.155 265.339 302.749 263.25 303.362C261.161 303.985 259.082 304.638 257.014 305.322L244.541 309.352Z" fill="white"/>
<path opacity="0.1" d="M171.754 286.285L172.287 296.637L172.748 306.99L173.552 327.705L174.174 348.421L174.426 358.783L174.596 369.146L174.054 358.793L173.592 348.441L172.799 327.725L172.176 307.01L171.925 296.647L171.754 286.285Z" fill="black"/>
<path opacity="0.1" d="M168.792 292.527C168.993 293.421 168.46 294.476 167.456 294.778C166.974 294.929 166.402 294.878 165.92 294.607C165.448 294.336 165.096 293.843 164.986 293.3C164.875 292.758 165.006 292.165 165.347 291.733C165.679 291.3 166.191 291.029 166.693 290.979C167.727 290.848 168.631 291.622 168.792 292.527ZM168.792 292.527C168.701 292.074 168.41 291.672 168.019 291.451C167.627 291.23 167.155 291.21 166.773 291.33C165.97 291.592 165.578 292.446 165.729 293.14C165.859 293.843 166.542 294.476 167.386 294.406C167.798 294.376 168.219 294.165 168.491 293.813C168.772 293.461 168.882 292.979 168.792 292.527Z" fill="black"/>
<path opacity="0.1" d="M169.505 304.94C169.706 305.834 169.173 306.89 168.169 307.191C167.687 307.342 167.115 307.292 166.633 307.02C166.161 306.749 165.809 306.256 165.699 305.714C165.588 305.171 165.719 304.578 166.06 304.146C166.392 303.713 166.904 303.442 167.406 303.392C168.44 303.261 169.344 304.035 169.505 304.94ZM169.505 304.94C169.414 304.487 169.123 304.085 168.732 303.864C168.34 303.643 167.868 303.623 167.486 303.744C166.683 304.005 166.291 304.859 166.442 305.553C166.572 306.256 167.255 306.89 168.099 306.819C168.511 306.779 168.932 306.578 169.204 306.226C169.475 305.874 169.585 305.382 169.505 304.94Z" fill="black"/>
<path opacity="0.1" d="M169.957 318.106C170.158 319.001 169.625 320.056 168.621 320.358C168.139 320.509 167.567 320.458 167.085 320.187C166.613 319.916 166.261 319.423 166.151 318.88C166.04 318.338 166.171 317.745 166.512 317.312C166.844 316.88 167.356 316.609 167.858 316.559C168.892 316.438 169.796 317.212 169.957 318.106ZM169.957 318.106C169.866 317.654 169.575 317.252 169.183 317.031C168.792 316.81 168.32 316.79 167.938 316.91C167.135 317.172 166.743 318.026 166.894 318.72C167.024 319.423 167.707 320.056 168.551 319.986C168.962 319.946 169.384 319.745 169.655 319.393C169.927 319.041 170.037 318.559 169.957 318.106Z" fill="black"/>
<path opacity="0.1" d="M170.409 331.283C170.609 332.178 170.077 333.233 169.073 333.535C168.591 333.686 168.019 333.635 167.536 333.364C167.064 333.093 166.713 332.6 166.603 332.057C166.492 331.515 166.623 330.922 166.954 330.489C167.285 330.057 167.798 329.786 168.3 329.736C169.344 329.605 170.248 330.389 170.409 331.283ZM170.409 331.283C170.318 330.831 170.027 330.429 169.635 330.208C169.244 329.987 168.772 329.967 168.39 330.087C167.587 330.349 167.195 331.203 167.346 331.897C167.476 332.6 168.159 333.233 169.003 333.163C169.414 333.133 169.836 332.922 170.107 332.57C170.378 332.218 170.489 331.736 170.409 331.283Z" fill="black"/>
<path opacity="0.1" d="M170.86 344.46C171.061 345.355 170.529 346.41 169.525 346.712C169.043 346.863 168.47 346.812 167.988 346.541C167.516 346.27 167.165 345.777 167.054 345.234C166.944 344.692 167.075 344.099 167.416 343.666C167.747 343.234 168.26 342.963 168.762 342.913C169.796 342.782 170.7 343.566 170.86 344.46ZM170.86 344.46C170.77 344.008 170.479 343.606 170.087 343.385C169.696 343.164 169.224 343.144 168.842 343.264C168.039 343.526 167.647 344.38 167.798 345.074C167.928 345.777 168.611 346.41 169.455 346.34C169.866 346.31 170.288 346.099 170.559 345.747C170.83 345.395 170.941 344.913 170.86 344.46Z" fill="black"/>
<path opacity="0.1" d="M171.312 357.637C171.513 358.532 170.981 359.587 169.977 359.889C169.495 360.04 168.922 359.989 168.44 359.718C167.968 359.447 167.617 358.954 167.506 358.411C167.396 357.869 167.526 357.276 167.858 356.843C168.189 356.411 168.701 356.14 169.204 356.09C170.248 355.959 171.152 356.743 171.312 357.637ZM171.312 357.637C171.222 357.185 170.931 356.783 170.539 356.562C170.147 356.341 169.675 356.321 169.294 356.441C168.491 356.703 168.099 357.557 168.249 358.25C168.38 358.954 169.063 359.587 169.906 359.517C170.318 359.477 170.74 359.276 171.011 358.924C171.282 358.572 171.393 358.09 171.312 357.637Z" fill="black"/>
<path d="M175.378 377.781L128.306 392.058L129.972 397.56L177.044 383.283L175.378 377.781Z" fill="#F5735A"/>
<path opacity="0.4" d="M175.378 377.781L128.306 392.058L129.972 397.56L177.044 383.283L175.378 377.781Z" fill="white"/>
<path d="M152.849 382.742L147.375 384.485L149.962 392.626L155.437 390.884L152.849 382.742Z" fill="#F5735A"/>
<path d="M129.596 405.631L117.455 352.984L80.7907 361.688L98.8368 412.989L129.596 405.631Z" fill="#F5735A"/>
<path d="M137.731 402.958L129.596 405.631L117.455 352.984L129.155 355.768L137.731 402.958Z" fill="#F5735A"/>
<path opacity="0.2" d="M137.731 402.958L129.596 405.631L117.455 352.984L129.155 355.768L137.731 402.958Z" fill="black"/>
<path d="M176.233 386.775C179.677 386.775 182.469 383.981 182.469 380.534C182.469 377.087 179.677 374.292 176.233 374.292C172.789 374.292 169.997 377.087 169.997 380.534C169.997 383.981 172.789 386.775 176.233 386.775Z" fill="#F5735A"/>
<path d="M240.446 377.631L238.769 383.13L285.812 397.505L287.489 392.006L240.446 377.631Z" fill="#F5735A"/>
<path opacity="0.4" d="M240.446 377.631L238.769 383.13L285.812 397.505L287.489 392.006L240.446 377.631Z" fill="white"/>
<path d="M263 382.616L260.395 390.751L265.865 392.506L268.47 384.37L263 382.616Z" fill="#F5735A"/>
<path d="M286.187 405.581L298.449 352.964L335.093 361.738L316.936 413.009L286.187 405.581Z" fill="#F5735A"/>
<path d="M278.063 402.887L286.187 405.581L298.449 352.964L286.739 355.728L278.063 402.887Z" fill="#F5735A"/>
<path opacity="0.2" d="M278.063 402.887L286.187 405.581L298.449 352.964L286.739 355.728L278.063 402.887Z" fill="black"/>
<path d="M233.374 380.373C233.364 383.82 236.156 386.625 239.6 386.635C243.045 386.645 245.847 383.851 245.857 380.403C245.867 376.956 243.075 374.151 239.63 374.141C236.186 374.131 233.384 376.925 233.374 380.373Z" fill="#F5735A"/>
<path d="M280.473 315.443C280.623 315.302 295.737 301.271 313.522 306.065C331.709 310.98 346.732 338.4 346.873 338.671L351.924 335.937C351.271 334.721 335.605 306.065 315.008 300.507C294.06 294.858 277.209 310.588 276.496 311.262L280.473 315.443Z" fill="#F5735A"/>
<path opacity="0.4" d="M280.473 315.443C280.623 315.302 295.737 301.271 313.522 306.065C331.709 310.98 346.732 338.4 346.873 338.671L351.924 335.937C351.271 334.721 335.605 306.065 315.008 300.507C294.06 294.858 277.209 310.588 276.496 311.262L280.473 315.443Z" fill="white"/>
<path d="M340.174 366.281L351.07 360.522C350.026 358.542 348.741 355.135 348.55 352.059C348.309 348.079 349.885 346.672 351.633 345.757C355.449 343.737 357.728 344.541 359.285 345.455C361.464 346.742 363.684 349.385 365.531 352.883L376.427 347.124C373.445 341.475 369.789 337.334 365.551 334.831C361.324 332.339 354.485 330.308 345.889 334.852C339.19 338.39 335.776 344.762 336.268 352.803C336.64 359.135 339.351 364.723 340.174 366.281Z" fill="#F5735A"/>
<path d="M282.772 296.235C285.132 294.607 287.553 293.069 289.973 291.541C292.393 290.004 294.853 288.546 297.314 287.079C299.784 285.631 302.255 284.194 304.775 282.817L308.541 280.757C309.816 280.103 311.072 279.42 312.367 278.787C311.192 279.611 309.987 280.385 308.792 281.179L305.167 283.481C302.747 285.008 300.286 286.476 297.826 287.943C295.355 289.391 292.885 290.828 290.364 292.205C287.854 293.592 285.343 294.959 282.772 296.235Z" fill="#263238"/>
<path d="M276.516 319.755C279.9 321.685 283.104 323.856 286.257 326.097C289.4 328.359 292.503 330.68 295.416 333.253C292.031 331.324 288.828 329.153 285.675 326.911C282.531 324.65 279.438 322.328 276.516 319.755Z" fill="#263238"/>
<path d="M282.069 316.86C284.68 317.654 287.251 318.549 289.812 319.463C292.383 320.368 294.914 321.343 297.454 322.318C299.985 323.313 302.516 324.318 305.016 325.383L308.762 326.992C309.997 327.565 311.253 328.097 312.478 328.7C311.172 328.308 309.887 327.866 308.591 327.454L304.745 326.107C302.174 325.203 299.644 324.228 297.103 323.253C294.572 322.258 292.041 321.252 289.541 320.187C287.02 319.122 284.52 318.036 282.069 316.86Z" fill="#263238"/>
<path d="M289.481 298.437C291.981 297.783 294.502 297.24 297.022 296.718C299.543 296.185 302.074 295.723 304.614 295.26C307.155 294.828 309.696 294.396 312.247 294.034L316.073 293.501C317.358 293.361 318.634 293.19 319.919 293.079C318.674 293.411 317.408 293.682 316.153 293.994L312.377 294.798C309.857 295.331 307.326 295.793 304.785 296.255C302.245 296.688 299.704 297.12 297.153 297.482C294.602 297.843 292.052 298.195 289.481 298.437Z" fill="#263238"/>
<path d="M229.217 314.086C229.638 312.056 230.321 310.066 231.205 308.186C232.089 306.296 233.163 304.487 234.519 302.879C235.875 301.291 237.552 299.884 239.57 299.11C241.579 298.356 243.888 298.366 245.907 299.17C247.946 299.964 249.562 301.683 250.426 303.663C250.878 304.648 251.159 305.703 251.28 306.789C251.38 307.875 251.34 308.99 250.908 310.076C250.687 310.608 250.346 311.141 249.803 311.503C249.542 311.684 249.211 311.794 248.9 311.845C248.588 311.885 248.267 311.875 247.895 311.754C247.223 311.473 246.891 310.93 246.6 310.438C246.339 309.935 246.138 309.412 246.007 308.89C245.445 306.789 245.385 304.658 245.485 302.547C245.786 298.346 246.891 294.145 249.151 290.526C250.295 288.737 251.721 287.099 253.509 285.893C255.266 284.687 257.325 283.852 259.424 283.611C260.458 283.36 261.523 283.38 262.577 283.33C263.109 283.269 263.632 283.4 264.154 283.43C264.676 283.501 265.208 283.491 265.721 283.641C267.809 284.013 269.768 284.858 271.595 285.873C273.413 286.928 275.04 288.275 276.516 289.732C277.982 291.21 279.318 292.828 280.392 294.607C278.022 291.22 274.959 288.275 271.354 286.295C269.537 285.35 267.619 284.576 265.6 284.265C265.108 284.124 264.586 284.154 264.084 284.094C263.571 284.084 263.069 283.963 262.567 284.033C261.553 284.104 260.529 284.104 259.544 284.365C257.516 284.646 255.638 285.461 253.991 286.596C252.334 287.732 250.988 289.3 249.914 291.009C247.785 294.466 246.74 298.547 246.479 302.608C246.369 304.638 246.419 306.709 246.921 308.628C247.162 309.553 247.594 310.588 248.227 310.88C248.307 310.89 248.357 310.93 248.458 310.93C248.558 310.92 248.659 310.94 248.759 310.92C248.95 310.89 249.131 310.84 249.291 310.719C249.623 310.508 249.884 310.146 250.054 309.724C250.406 308.87 250.476 307.854 250.386 306.879C250.285 305.894 250.034 304.919 249.633 304.015C248.839 302.206 247.433 300.648 245.606 299.884C243.788 299.11 241.659 299.05 239.781 299.703C237.883 300.386 236.256 301.693 234.89 303.201C232.159 306.266 230.311 310.096 229.217 314.086Z" fill="#263238"/>
<path d="M136.415 340.138C137.389 338.309 138.805 336.731 140.472 335.475C142.129 334.228 144.047 333.253 146.096 332.781C148.135 332.289 150.334 332.278 152.373 332.902C154.421 333.515 156.259 334.711 157.735 336.239C159.221 337.766 160.326 339.626 161.089 341.596C161.832 343.576 162.284 345.687 162.124 347.858C162.013 348.923 161.802 350.069 160.959 350.994C160.537 351.446 159.894 351.747 159.272 351.757C158.669 351.747 158.097 351.657 157.544 351.365C156.992 351.084 156.55 350.582 156.299 350.039C156.048 349.486 155.948 348.913 155.917 348.35C155.877 347.224 156.118 346.159 156.45 345.134C157.123 343.093 158.227 341.264 159.523 339.596C160.818 337.937 162.355 336.45 164.072 335.223C167.476 332.751 171.804 331.374 176.032 331.927C178.121 332.208 180.19 332.811 182.018 333.877C183.865 334.902 185.462 336.339 186.758 337.967C188.063 339.606 189.077 341.455 189.851 343.375C190.634 345.295 191.206 347.305 191.487 349.355C190.644 345.325 188.987 341.415 186.356 338.299C185.05 336.741 183.474 335.404 181.686 334.46C179.919 333.485 177.93 332.952 175.932 332.731C171.915 332.289 167.838 333.575 164.604 335.977C161.371 338.359 158.719 341.686 157.384 345.445C157.072 346.38 156.851 347.365 156.882 348.31C156.902 349.245 157.233 350.149 157.986 350.531C158.338 350.732 158.82 350.813 159.242 350.823C159.653 350.813 160.015 350.652 160.296 350.35C160.878 349.737 161.129 348.732 161.22 347.777C161.381 345.817 160.969 343.787 160.266 341.907C159.553 340.028 158.498 338.269 157.133 336.801C155.767 335.334 154.05 334.188 152.152 333.565C150.254 332.932 148.175 332.882 146.197 333.304C142.26 334.148 138.604 336.631 136.415 340.138Z" fill="#263238"/>
<path d="M89.9594 97.405C89.8489 93.274 88.9652 89.1028 87.0471 85.4743C86.083 83.6752 84.8076 82.0168 83.1306 80.9011C81.4535 79.8156 79.3747 79.3633 77.4265 79.6849C75.4682 79.9965 73.7309 81.1725 72.5258 82.7405C71.9133 83.5244 71.4413 84.4089 71.1099 85.3336C70.7885 86.2583 70.6077 87.2634 70.7483 88.1781C70.8186 88.6304 70.9793 89.0525 71.2505 89.334C71.381 89.4847 71.5417 89.5752 71.7224 89.6556C71.8028 89.7058 71.9132 89.7059 72.0137 89.736C72.1141 89.7561 72.1743 89.726 72.2547 89.736C72.9376 89.6053 73.6104 88.7007 74.0623 87.8665C75.0163 86.1176 75.5586 84.1175 75.9302 82.1173C76.6432 78.117 76.603 73.9056 75.3578 70.0359C74.7251 68.1161 73.7912 66.2868 72.4455 64.7792C71.1099 63.2816 69.483 62.0453 67.585 61.2814C66.6912 60.7889 65.697 60.5477 64.733 60.2361C64.2509 60.0451 63.7388 60.0451 63.2367 59.9346C62.7345 59.8642 62.2324 59.7235 61.7303 59.7335C59.6917 59.5526 57.6431 59.8542 55.6647 60.3366C51.698 61.392 48.0225 63.5228 44.9094 66.2466C46.3756 64.7691 48.0526 63.5228 49.8301 62.4373C51.6177 61.3719 53.5157 60.4472 55.5342 59.8642C57.5527 59.3215 59.6616 58.9697 61.7705 59.1104C62.3027 59.0802 62.8149 59.2209 63.3471 59.2812C63.8693 59.3818 64.4016 59.3818 64.9037 59.5627C65.918 59.8642 66.9624 60.0954 67.9064 60.5879C69.8847 61.3216 71.6923 62.6283 73.1083 64.2163C74.5544 65.8044 75.5486 67.7443 76.2315 69.7545C77.5671 73.8051 77.6374 78.1572 76.9244 82.3083C76.5227 84.3788 75.9503 86.4393 74.9059 88.3389C74.6448 88.8113 74.3335 89.2737 73.9619 89.7059C73.5702 90.1079 73.1083 90.5501 72.3852 90.6708C72.0036 90.711 71.6823 90.6406 71.391 90.52C71.0898 90.3994 70.8086 90.2185 70.5877 89.9772C70.1358 89.5048 69.9349 88.9018 69.8445 88.3289C69.6839 87.183 69.9148 86.0774 70.2663 85.0522C70.6379 84.027 71.1601 83.0721 71.8329 82.2178C73.1485 80.5091 75.1268 79.2226 77.296 78.9412C79.445 78.6396 81.6945 79.1824 83.462 80.3986C85.2294 81.6348 86.5249 83.3938 87.4588 85.2633C88.3927 87.1529 89.0053 89.1631 89.4171 91.2135C89.8388 93.2438 90.0296 95.3345 89.9594 97.405Z" fill="#263238"/>
<path d="M311.714 149.841C307.667 148.987 303.419 148.866 299.443 149.892C297.474 150.414 295.556 151.269 294.09 152.636C292.644 154.013 291.72 155.932 291.58 157.902C291.419 159.872 292.162 161.842 293.407 163.38C294.02 164.154 294.773 164.828 295.596 165.36C296.42 165.883 297.354 166.295 298.268 166.375C298.72 166.416 299.172 166.345 299.503 166.154C299.674 166.064 299.804 165.923 299.925 165.772C299.985 165.702 300.015 165.602 300.065 165.511C300.105 165.421 300.095 165.35 300.126 165.28C300.156 164.586 299.433 163.722 298.73 163.079C297.253 161.742 295.436 160.747 293.588 159.923C289.862 158.294 285.765 157.35 281.718 157.661C279.709 157.832 277.711 158.314 275.934 159.269C274.166 160.214 272.579 161.511 271.404 163.189C270.712 163.943 270.25 164.858 269.717 165.722C269.426 166.144 269.296 166.647 269.075 167.099C268.894 167.572 268.633 168.024 268.532 168.526C267.89 170.466 267.689 172.527 267.699 174.577C267.799 178.688 269.004 182.759 270.932 186.427C269.848 184.658 269.024 182.729 268.382 180.748C267.759 178.758 267.307 176.698 267.207 174.597C267.146 172.507 267.297 170.376 267.93 168.345C268.03 167.823 268.281 167.35 268.462 166.858C268.683 166.375 268.803 165.853 269.095 165.411C269.627 164.496 270.089 163.531 270.792 162.727C271.967 160.968 273.654 159.521 275.532 158.516C277.42 157.48 279.529 156.968 281.648 156.767C285.896 156.415 290.133 157.36 294 159.018C295.918 159.893 297.786 160.928 299.392 162.395C299.794 162.757 300.166 163.169 300.497 163.632C300.798 164.114 301.12 164.657 301.07 165.39C301.009 165.772 300.879 166.064 300.698 166.325C300.507 166.587 300.266 166.828 299.975 166.979C299.403 167.3 298.77 167.36 298.207 167.31C297.053 167.2 296.038 166.717 295.124 166.134C294.221 165.531 293.407 164.797 292.734 163.943C291.379 162.265 290.595 160.043 290.826 157.862C291.037 155.691 292.092 153.641 293.678 152.193C295.295 150.756 297.304 149.912 299.342 149.439C301.391 148.967 303.5 148.846 305.579 148.927C307.637 148.977 309.706 149.279 311.714 149.841Z" fill="#263238"/>
<path d="M249.542 84.811C248.859 82.4289 248.759 79.886 249.151 77.4234C249.532 74.9609 250.366 72.5487 251.732 70.4279C253.067 68.3071 254.945 66.4678 257.205 65.3019C259.454 64.1259 262.025 63.6133 264.556 63.6937C267.096 63.764 269.587 64.4174 271.876 65.4627C274.166 66.5281 276.305 67.9654 277.972 69.9354C278.766 70.9305 279.529 72.0863 279.579 73.5437C279.599 74.2574 279.308 75.0313 278.796 75.5539C278.283 76.0465 277.731 76.4384 277.028 76.6395C276.335 76.8505 275.572 76.8003 274.909 76.549C274.246 76.2977 273.694 75.8856 273.202 75.4333C272.238 74.5187 271.555 73.403 270.993 72.2572C269.878 69.9555 269.286 67.4729 269.004 64.9702C268.723 62.4674 268.804 59.9245 269.235 57.4419C270.079 52.4867 272.63 47.7024 276.687 44.6469C278.705 43.1392 280.965 41.9231 283.415 41.2999C285.845 40.6365 288.406 40.5159 290.877 40.8174C293.357 41.129 295.767 41.8426 298.047 42.8276C300.326 43.8127 302.506 45.0389 304.464 46.5465C300.387 43.7825 295.697 41.8024 290.816 41.32C288.386 41.0687 285.916 41.2396 283.586 41.9231C281.236 42.5663 279.087 43.7825 277.179 45.2701C275.291 46.7878 273.684 48.6472 272.509 50.7579C271.324 52.8687 270.551 55.2005 270.139 57.5927C269.356 62.3669 269.858 67.4427 271.876 71.8149C272.399 72.8904 273.031 73.9257 273.865 74.7197C274.678 75.5137 275.753 76.0364 276.757 75.7148C277.249 75.5841 277.741 75.2424 278.113 74.8906C278.464 74.5287 278.655 74.0563 278.645 73.5337C278.635 72.4783 277.992 71.4029 277.259 70.4983C275.743 68.669 273.684 67.2618 271.505 66.2467C269.316 65.2315 266.926 64.6083 264.515 64.4978C262.105 64.3872 259.665 64.8496 257.516 65.925C255.357 66.9804 253.519 68.6891 252.183 70.7194C249.492 74.77 248.448 79.9764 249.542 84.811Z" fill="#263238"/>
<path d="M133.061 340.36C130.812 339.646 128.411 340.902 127.709 343.154C126.996 345.405 128.251 347.807 130.5 348.511C132.75 349.225 135.14 347.968 135.853 345.717C136.556 343.465 135.311 341.063 133.061 340.36ZM135.351 345.556C134.728 347.536 132.619 348.632 130.651 348.008C128.673 347.385 127.578 345.275 128.201 343.305C128.823 341.324 130.932 340.229 132.9 340.852C134.879 341.475 135.973 343.586 135.351 345.556ZM133.061 340.36C130.812 339.646 128.411 340.902 127.709 343.154C126.996 345.405 128.251 347.807 130.5 348.511C132.75 349.225 135.14 347.968 135.853 345.717C136.556 343.465 135.311 341.063 133.061 340.36ZM135.351 345.556C134.728 347.536 132.619 348.632 130.651 348.008C128.673 347.385 127.578 345.275 128.201 343.305C128.823 341.324 130.932 340.229 132.9 340.852C134.879 341.475 135.973 343.586 135.351 345.556ZM133.061 340.36C130.812 339.646 128.411 340.902 127.709 343.154C126.996 345.405 128.251 347.807 130.5 348.511C132.75 349.225 135.14 347.968 135.853 345.717C136.556 343.465 135.311 341.063 133.061 340.36ZM135.351 345.556C134.728 347.536 132.619 348.632 130.651 348.008C128.673 347.385 127.578 345.275 128.201 343.305C128.823 341.324 130.932 340.229 132.9 340.852C134.879 341.475 135.973 343.586 135.351 345.556ZM134.487 335.837C129.747 334.339 124.686 336.982 123.2 341.716C121.703 346.461 124.334 351.516 129.084 353.014C133.824 354.511 138.876 351.868 140.372 347.124C141.858 342.4 139.227 337.334 134.487 335.837ZM136.486 345.918C135.672 348.521 132.89 349.968 130.299 349.144C127.709 348.33 126.262 345.546 127.076 342.953C127.889 340.35 130.671 338.912 133.262 339.726C135.853 340.54 137.299 343.325 136.486 345.918ZM135.853 345.717C136.566 343.465 135.311 341.063 133.071 340.36C130.822 339.646 128.422 340.902 127.719 343.154C127.006 345.405 128.261 347.807 130.51 348.511C132.74 349.215 135.14 347.968 135.853 345.717ZM135.351 345.556C134.728 347.536 132.619 348.632 130.651 348.008C128.673 347.385 127.578 345.275 128.201 343.305C128.823 341.324 130.932 340.229 132.9 340.852C134.879 341.475 135.973 343.586 135.351 345.556ZM133.061 340.36C130.812 339.646 128.411 340.902 127.709 343.154C126.996 345.405 128.251 347.807 130.5 348.511C132.75 349.225 135.14 347.968 135.853 345.717C136.556 343.465 135.311 341.063 133.061 340.36ZM135.351 345.556C134.728 347.536 132.619 348.632 130.651 348.008C128.673 347.385 127.578 345.275 128.201 343.305C128.823 341.324 130.932 340.229 132.9 340.852C134.879 341.475 135.973 343.586 135.351 345.556ZM133.061 340.36C130.812 339.646 128.411 340.902 127.709 343.154C126.996 345.405 128.251 347.807 130.5 348.511C132.75 349.225 135.14 347.968 135.853 345.717C136.556 343.465 135.311 341.063 133.061 340.36ZM135.351 345.556C134.728 347.536 132.619 348.632 130.651 348.008C128.673 347.385 127.578 345.275 128.201 343.305C128.823 341.324 130.932 340.229 132.9 340.852C134.879 341.475 135.973 343.586 135.351 345.556Z" fill="#455A64"/>
<path d="M130.832 353.185L127.538 352.149L126.975 354.542L129.918 355.466L130.832 353.185Z" fill="#455A64"/>
<path d="M124.907 350.099L123.3 347.023L121.221 348.32L122.637 351.054L124.907 350.099Z" fill="#455A64"/>
<path d="M122.898 343.707L123.933 340.4L121.543 339.847L120.619 342.792L122.898 343.707Z" fill="#455A64"/>
<path d="M125.981 337.766L129.054 336.168L127.759 334.088L125.027 335.505L125.981 337.766Z" fill="#455A64"/>
<path d="M132.368 335.756L135.672 336.801L136.224 334.409L133.282 333.485L132.368 335.756Z" fill="#455A64"/>
<path d="M138.303 338.852L139.9 341.928L141.979 340.621L140.563 337.897L138.303 338.852Z" fill="#455A64"/>
<path d="M140.312 345.244L139.267 348.541L141.657 349.104L142.581 346.159L140.312 345.244Z" fill="#455A64"/>
<path d="M137.219 351.175L134.146 352.783L135.451 354.863L138.173 353.446L137.219 351.175Z" fill="#455A64"/>
<path d="M299.563 311.634C304.092 305.533 302.817 296.909 296.711 292.376C290.605 287.843 281.989 289.119 277.47 295.22C272.941 301.331 274.216 309.955 280.322 314.488C286.418 319.021 295.034 317.745 299.563 311.634ZM293.678 307.261C291.559 310.116 287.542 310.709 284.69 308.598C281.838 306.477 281.246 302.457 283.365 299.602C285.484 296.748 289.501 296.155 292.353 298.276C295.195 300.386 295.787 304.417 293.678 307.261Z" fill="#263238"/>
<path d="M282.782 315.614L278.535 312.458L276.536 315.634L280.312 318.448L282.782 315.614Z" fill="#263238"/>
<path d="M275.763 308.166L274.98 302.929L271.324 303.774L272.007 308.427L275.763 308.166Z" fill="#263238"/>
<path d="M276.044 297.944L279.197 293.692L276.014 291.692L273.212 295.471L276.044 297.944Z" fill="#263238"/>
<path d="M283.475 290.908L288.707 290.134L287.874 286.476L283.224 287.159L283.475 290.908Z" fill="#263238"/>
<path d="M293.698 291.2L297.946 294.356L299.945 291.17L296.169 288.365L293.698 291.2Z" fill="#263238"/>
<path d="M300.728 298.637L301.501 303.874L305.157 303.04L304.474 298.376L300.728 298.637Z" fill="#263238"/>
<path d="M300.437 308.87L297.284 313.121L300.467 315.121L303.269 311.342L300.437 308.87Z" fill="#263238"/>
<path d="M293.006 315.895L287.773 316.669L288.607 320.338L293.257 319.644L293.006 315.895Z" fill="#263238"/>
<path d="M283.586 304.095L286.508 307.784L291.158 307.09L292.885 302.718L289.963 299.03L285.313 299.713L283.586 304.095ZM289.129 302.206C289.792 302.698 289.933 303.633 289.441 304.296C288.948 304.96 288.015 305.1 287.352 304.608C286.689 304.115 286.548 303.181 287.04 302.517C287.532 301.854 288.466 301.713 289.129 302.206Z" fill="#263238"/>
<path d="M309.877 43.5312C307.908 42.9081 305.81 44.0036 305.187 45.9736C304.564 47.9436 305.659 50.0443 307.627 50.6675C309.596 51.2907 311.694 50.1951 312.307 48.2251C312.94 46.245 311.845 44.1443 309.877 43.5312ZM311.885 48.0844C311.343 49.8131 309.495 50.778 307.768 50.2353C306.041 49.6925 305.076 47.8431 305.629 46.1144C306.171 44.3856 308.019 43.4207 309.746 43.9735C311.463 44.5062 312.427 46.3556 311.885 48.0844ZM309.877 43.5312C307.908 42.9081 305.81 44.0036 305.187 45.9736C304.564 47.9436 305.659 50.0443 307.627 50.6675C309.596 51.2907 311.694 50.1951 312.307 48.2251C312.94 46.245 311.845 44.1443 309.877 43.5312ZM311.885 48.0844C311.343 49.8131 309.495 50.778 307.768 50.2353C306.041 49.6925 305.076 47.8431 305.629 46.1144C306.171 44.3856 308.019 43.4207 309.746 43.9735C311.463 44.5062 312.427 46.3556 311.885 48.0844ZM309.877 43.5312C307.908 42.9081 305.81 44.0036 305.187 45.9736C304.564 47.9436 305.659 50.0443 307.627 50.6675C309.596 51.2907 311.694 50.1951 312.307 48.2251C312.94 46.245 311.845 44.1443 309.877 43.5312ZM311.885 48.0844C311.343 49.8131 309.495 50.778 307.768 50.2353C306.041 49.6925 305.076 47.8431 305.629 46.1144C306.171 44.3856 308.019 43.4207 309.746 43.9735C311.463 44.5062 312.427 46.3556 311.885 48.0844ZM311.122 39.5812C306.974 38.2745 302.546 40.5762 301.24 44.7273C299.935 48.8784 302.234 53.3109 306.382 54.6176C310.529 55.9242 314.948 53.6225 316.264 49.4714C317.569 45.3103 315.269 40.8878 311.122 39.5812ZM312.869 48.3959C312.156 50.6675 309.726 51.9339 307.457 51.2203C305.187 50.5067 303.922 48.0743 304.635 45.8028C305.348 43.5312 307.778 42.2648 310.047 42.9784C312.317 43.692 313.582 46.1244 312.869 48.3959ZM312.317 48.215C312.94 46.245 311.845 44.1443 309.877 43.5212C307.908 42.898 305.81 43.9936 305.187 45.9636C304.564 47.9336 305.659 50.0343 307.627 50.6574C309.596 51.2806 311.694 50.185 312.317 48.215ZM311.885 48.0844C311.343 49.8131 309.495 50.778 307.768 50.2353C306.041 49.6925 305.076 47.8431 305.629 46.1144C306.171 44.3856 308.019 43.4207 309.746 43.9735C311.463 44.5062 312.427 46.3556 311.885 48.0844ZM309.877 43.5312C307.908 42.9081 305.81 44.0036 305.187 45.9736C304.564 47.9436 305.659 50.0443 307.627 50.6675C309.596 51.2907 311.694 50.1951 312.307 48.2251C312.94 46.245 311.845 44.1443 309.877 43.5312ZM311.885 48.0844C311.343 49.8131 309.495 50.778 307.768 50.2353C306.041 49.6925 305.076 47.8431 305.629 46.1144C306.171 44.3856 308.019 43.4207 309.746 43.9735C311.463 44.5062 312.427 46.3556 311.885 48.0844ZM309.877 43.5312C307.908 42.9081 305.81 44.0036 305.187 45.9736C304.564 47.9436 305.659 50.0443 307.627 50.6675C309.596 51.2907 311.694 50.1951 312.307 48.2251C312.94 46.245 311.845 44.1443 309.877 43.5312ZM311.885 48.0844C311.343 49.8131 309.495 50.778 307.768 50.2353C306.041 49.6925 305.076 47.8431 305.629 46.1144C306.171 44.3856 308.019 43.4207 309.746 43.9735C311.463 44.5062 312.427 46.3556 311.885 48.0844Z" fill="#263238"/>
<path d="M307.928 54.7583L305.036 53.8436L304.554 55.9443L307.125 56.7484L307.928 54.7583Z" fill="#263238"/>
<path d="M302.737 52.0445L301.341 49.3608L299.513 50.4966L300.758 52.8888L302.737 52.0445Z" fill="#263238"/>
<path d="M300.979 46.4561L301.893 43.5714L299.794 43.089L298.981 45.652L300.979 46.4561Z" fill="#263238"/>
<path d="M303.681 41.2597L306.372 39.8626L305.227 38.0433L302.847 39.2796L303.681 41.2597Z" fill="#263238"/>
<path d="M309.264 39.5007L312.156 40.4154L312.638 38.3248L310.068 37.5106L309.264 39.5007Z" fill="#263238"/>
<path d="M314.456 42.2145L315.862 44.8982L317.68 43.7624L316.434 41.3702L314.456 42.2145Z" fill="#263238"/>
<path d="M316.213 47.8029L315.31 50.6876L317.398 51.1801L318.212 48.607L316.213 47.8029Z" fill="#263238"/>
<path d="M313.512 52.9993L310.821 54.3964L311.965 56.2257L314.356 54.9794L313.512 52.9993Z" fill="#263238"/>
<path d="M271.495 187.121C269.527 186.498 267.428 187.593 266.805 189.563C266.182 191.533 267.277 193.634 269.245 194.257C271.214 194.88 273.313 193.785 273.925 191.815C274.558 189.845 273.463 187.744 271.495 187.121ZM273.503 191.674C272.961 193.403 271.113 194.368 269.386 193.825C267.659 193.282 266.695 191.433 267.247 189.704C267.789 187.975 269.637 187.01 271.364 187.563C273.092 188.106 274.046 189.945 273.503 191.674ZM271.495 187.121C269.527 186.498 267.428 187.593 266.805 189.563C266.182 191.533 267.277 193.634 269.245 194.257C271.214 194.88 273.313 193.785 273.925 191.815C274.558 189.845 273.463 187.744 271.495 187.121ZM273.503 191.674C272.961 193.403 271.113 194.368 269.386 193.825C267.659 193.282 266.695 191.433 267.247 189.704C267.789 187.975 269.637 187.01 271.364 187.563C273.092 188.106 274.046 189.945 273.503 191.674ZM271.495 187.121C269.527 186.498 267.428 187.593 266.805 189.563C266.182 191.533 267.277 193.634 269.245 194.257C271.214 194.88 273.313 193.785 273.925 191.815C274.558 189.845 273.463 187.744 271.495 187.121ZM273.503 191.674C272.961 193.403 271.113 194.368 269.386 193.825C267.659 193.282 266.695 191.433 267.247 189.704C267.789 187.975 269.637 187.01 271.364 187.563C273.092 188.106 274.046 189.945 273.503 191.674ZM272.74 183.171C268.593 181.864 264.164 184.166 262.858 188.317C261.553 192.468 263.853 196.901 268 198.207C272.148 199.514 276.566 197.212 277.882 193.061C279.197 188.91 276.888 184.477 272.74 183.171ZM274.487 191.986C273.774 194.257 271.344 195.524 269.075 194.81C266.805 194.096 265.54 191.664 266.253 189.392C266.966 187.121 269.396 185.854 271.666 186.568C273.945 187.282 275.211 189.714 274.487 191.986ZM273.935 191.815C274.558 189.845 273.463 187.744 271.495 187.121C269.527 186.498 267.428 187.593 266.805 189.563C266.182 191.533 267.277 193.634 269.245 194.257C271.224 194.88 273.313 193.785 273.935 191.815ZM273.503 191.674C272.961 193.403 271.113 194.368 269.386 193.825C267.659 193.282 266.695 191.433 267.247 189.704C267.789 187.975 269.637 187.01 271.364 187.563C273.092 188.106 274.046 189.945 273.503 191.674ZM271.495 187.121C269.527 186.498 267.428 187.593 266.805 189.563C266.182 191.533 267.277 193.634 269.245 194.257C271.214 194.88 273.313 193.785 273.925 191.815C274.558 189.845 273.463 187.744 271.495 187.121ZM273.503 191.674C272.961 193.403 271.113 194.368 269.386 193.825C267.659 193.282 266.695 191.433 267.247 189.704C267.789 187.975 269.637 187.01 271.364 187.563C273.092 188.106 274.046 189.945 273.503 191.674ZM271.495 187.121C269.527 186.498 267.428 187.593 266.805 189.563C266.182 191.533 267.277 193.634 269.245 194.257C271.214 194.88 273.313 193.785 273.925 191.815C274.558 189.845 273.463 187.744 271.495 187.121ZM273.503 191.674C272.961 193.403 271.113 194.368 269.386 193.825C267.659 193.282 266.695 191.433 267.247 189.704C267.789 187.975 269.637 187.01 271.364 187.563C273.092 188.106 274.046 189.945 273.503 191.674Z" fill="#263238"/>
<path d="M269.547 198.348L266.664 197.443L266.172 199.534L268.743 200.348L269.547 198.348Z" fill="#263238"/>
<path d="M264.355 195.644L262.959 192.951L261.141 194.096L262.376 196.488L264.355 195.644Z" fill="#263238"/>
<path d="M262.597 190.056L263.511 187.161L261.412 186.679L260.609 189.252L262.597 190.056Z" fill="#263238"/>
<path d="M265.309 184.859L267.99 183.462L266.855 181.633L264.465 182.879L265.309 184.859Z" fill="#263238"/>
<path d="M270.892 183.1L273.774 184.015L274.267 181.914L271.696 181.1L270.892 183.1Z" fill="#263238"/>
<path d="M276.084 185.804L277.48 188.498L279.308 187.352L278.063 184.97L276.084 185.804Z" fill="#263238"/>
<path d="M277.842 191.393L276.928 194.287L279.027 194.77L279.83 192.197L277.842 191.393Z" fill="#263238"/>
<path d="M275.13 196.589L272.449 197.996L273.584 199.815L275.974 198.569L275.13 196.589Z" fill="#263238"/>
<path d="M51.8687 74.0764C53.4152 67.7141 49.5188 61.3015 43.162 59.7537C36.8052 58.2058 30.3982 62.1056 28.8517 68.4679C27.3051 74.8303 31.2016 81.2429 37.5584 82.7907C43.9051 84.3386 50.3222 80.4388 51.8687 74.0764ZM45.7329 72.5788C45.0098 75.5539 42.0172 77.3732 39.0547 76.6495C36.0822 75.9258 34.2645 72.9306 34.9875 69.9555C35.7106 66.9804 38.7032 65.1611 41.6757 65.8848C44.6382 66.6185 46.4559 69.6037 45.7329 72.5788Z" fill="#263238"/>
<path d="M39.8782 82.851L35.4595 81.7756L34.9373 84.9618L38.8739 85.9267L39.8782 82.851Z" fill="#263238"/>
<path d="M31.8242 79.303L29.4542 75.4132L26.8332 77.3028L28.932 80.7604L31.8242 79.303Z" fill="#263238"/>
<path d="M28.6307 71.0913L29.7053 66.6588L26.5118 66.1461L25.5578 70.0862L28.6307 71.0913Z" fill="#263238"/>
<path d="M32.1757 63.0203L36.0621 60.6583L34.1741 58.0249L30.7095 60.1356L32.1757 63.0203Z" fill="#263238"/>
<path d="M40.3803 59.824L44.7989 60.9095L45.3211 57.7133L41.3845 56.7484L40.3803 59.824Z" fill="#263238"/>
<path d="M48.4342 63.372L50.8042 67.2719L53.4253 65.3722L51.3264 61.9146L48.4342 63.372Z" fill="#263238"/>
<path d="M51.6277 71.5838L50.5532 76.0163L53.7466 76.539L54.7007 72.5989L51.6277 71.5838Z" fill="#263238"/>
<path d="M48.0828 79.6548L44.1964 82.0268L46.0843 84.6502L49.5489 82.5394L48.0828 79.6548Z" fill="#263238"/>
<path d="M36.6646 73.4432L40.2196 75.3931L43.6842 73.2824L43.5938 69.2318L40.0489 67.2819L36.5843 69.3826L36.6646 73.4432ZM40.4305 70.0862C41.1234 70.257 41.5452 70.9506 41.3745 71.634C41.2038 72.3175 40.5108 72.7497 39.828 72.5788C39.1451 72.408 38.7133 71.7144 38.884 71.031C39.0446 70.3475 39.7476 69.9254 40.4305 70.0862Z" fill="#263238"/>
<path d="M319.568 196.639C316.866 192.518 315.35 187.895 315.35 183C315.35 165.712 334.31 151.701 357.688 151.701C381.067 151.701 400.007 165.712 400.007 183C400.007 200.288 381.057 214.299 357.688 214.299C346.351 214.299 336.077 211.012 328.485 205.635L313.904 209.344L319.568 196.639Z" fill="white"/>
<path d="M319.568 196.639C317.017 192.84 315.42 188.347 315.249 183.744C315.119 179.14 316.254 174.487 318.614 170.506C320.923 166.496 324.207 163.119 327.923 160.395C331.638 157.661 335.826 155.591 340.205 154.143C344.573 152.686 349.132 151.801 353.732 151.44C358.331 151.098 362.971 151.389 367.52 152.143C368.645 152.374 369.799 152.525 370.914 152.827L374.258 153.731L377.522 154.887C378.607 155.279 379.641 155.812 380.705 156.264C384.873 158.244 388.789 160.847 392.073 164.134C395.357 167.401 397.998 171.401 399.394 175.874C400.79 180.326 400.89 185.221 399.535 189.704C398.219 194.197 395.628 198.237 392.395 201.554C389.151 204.881 385.275 207.525 381.127 209.555C376.98 211.605 372.511 212.952 367.982 213.766C363.443 214.55 358.813 214.882 354.214 214.56C349.614 214.269 345.055 213.425 340.677 211.987C336.308 210.55 332.1 208.54 328.365 205.846L328.555 205.876L313.944 209.474L313.723 209.525L313.813 209.324L319.568 196.639ZM319.568 196.639L314.004 209.394L313.874 209.243L328.425 205.414L328.525 205.384L328.616 205.444C336.127 210.63 345.186 213.334 354.244 213.817C358.783 214.098 363.352 213.726 367.821 212.922C372.28 212.088 376.668 210.771 380.735 208.741C384.803 206.741 388.579 204.137 391.732 200.891C394.875 197.654 397.356 193.745 398.601 189.423C399.896 185.111 399.766 180.437 398.44 176.155C397.115 171.863 394.574 167.994 391.4 164.797C388.217 161.591 384.401 159.038 380.324 157.078C379.279 156.626 378.275 156.103 377.211 155.721L374.007 154.575L370.723 153.681C369.629 153.389 368.494 153.229 367.389 152.997C362.92 152.234 358.351 151.962 353.812 152.254C349.283 152.575 344.784 153.4 340.456 154.807C336.127 156.204 331.98 158.204 328.294 160.867C324.609 163.511 321.355 166.818 319.015 170.728C316.625 174.607 315.44 179.181 315.49 183.744C315.561 188.307 317.077 192.8 319.568 196.639Z" fill="#263238"/>
<path d="M335.906 188.126V190.458H326.437V176.798H335.736V179.13H329.088V182.417H334.832V184.568H329.088V188.126H335.906Z" fill="#263238"/>
<path d="M337.975 190.448V176.798H344.011C344.643 176.798 345.216 176.929 345.748 177.19C346.28 177.452 346.742 177.804 347.124 178.226C347.505 178.658 347.807 179.14 348.028 179.683C348.248 180.226 348.359 180.779 348.359 181.331C348.359 182.216 348.138 183.02 347.696 183.744C347.254 184.467 346.652 184.99 345.899 185.312L349.012 190.448H346.029L343.247 185.875H340.636V190.448H337.975ZM340.636 183.543H343.96C344.201 183.543 344.432 183.482 344.643 183.372C344.854 183.261 345.035 183.1 345.196 182.899C345.346 182.698 345.467 182.467 345.557 182.196C345.648 181.924 345.688 181.633 345.688 181.331C345.688 181.01 345.637 180.718 345.537 180.447C345.437 180.176 345.296 179.944 345.125 179.743C344.955 179.542 344.754 179.392 344.533 179.281C344.312 179.17 344.081 179.12 343.85 179.12H340.636V183.543Z" fill="#263238"/>
<path d="M350.759 190.448V176.798H356.795C357.427 176.798 358 176.929 358.532 177.19C359.064 177.452 359.526 177.804 359.908 178.226C360.289 178.658 360.591 179.14 360.811 179.683C361.032 180.226 361.143 180.779 361.143 181.331C361.143 182.216 360.922 183.02 360.48 183.744C360.038 184.467 359.436 184.99 358.683 185.312L361.796 190.448H358.813L356.031 185.875H353.42V190.448H350.759ZM353.41 183.543H356.734C356.975 183.543 357.206 183.482 357.417 183.372C357.628 183.261 357.809 183.1 357.969 182.899C358.12 182.698 358.241 182.467 358.331 182.196C358.421 181.924 358.462 181.633 358.462 181.331C358.462 181.01 358.411 180.718 358.311 180.447C358.211 180.176 358.07 179.944 357.899 179.743C357.728 179.542 357.528 179.392 357.307 179.281C357.086 179.17 356.855 179.12 356.624 179.12H353.41V183.543Z" fill="#263238"/>
<path d="M369.368 190.548C368.363 190.548 367.46 190.357 366.646 189.965C365.833 189.573 365.13 189.051 364.547 188.407C363.965 187.764 363.513 187.02 363.192 186.186C362.87 185.352 362.709 184.498 362.709 183.623C362.709 182.708 362.88 181.844 363.222 181.01C363.563 180.176 364.025 179.442 364.628 178.799C365.22 178.155 365.933 177.643 366.757 177.271C367.58 176.889 368.464 176.698 369.428 176.698C370.412 176.698 371.316 176.899 372.129 177.301C372.943 177.703 373.636 178.236 374.218 178.889C374.79 179.542 375.242 180.286 375.564 181.12C375.885 181.955 376.046 182.799 376.046 183.663C376.046 184.578 375.875 185.442 375.544 186.267C375.212 187.091 374.75 187.824 374.158 188.458C373.565 189.091 372.862 189.603 372.039 189.975C371.215 190.357 370.322 190.548 369.368 190.548ZM365.401 183.623C365.401 184.216 365.491 184.779 365.672 185.332C365.853 185.885 366.114 186.367 366.455 186.789C366.797 187.211 367.208 187.553 367.701 187.804C368.193 188.066 368.755 188.186 369.378 188.186C370.02 188.186 370.583 188.056 371.075 187.794C371.567 187.533 371.989 187.181 372.32 186.749C372.661 186.317 372.912 185.824 373.093 185.282C373.264 184.739 373.354 184.186 373.354 183.613C373.354 183.02 373.264 182.457 373.073 181.904C372.882 181.352 372.621 180.869 372.29 180.447C371.948 180.025 371.537 179.683 371.045 179.442C370.553 179.191 370 179.07 369.378 179.07C368.735 179.07 368.162 179.201 367.67 179.462C367.168 179.723 366.757 180.075 366.425 180.497C366.094 180.929 365.843 181.412 365.662 181.955C365.491 182.507 365.401 183.06 365.401 183.623Z" fill="#263238"/>
<path d="M378.064 190.448V176.798H384.1C384.732 176.798 385.305 176.929 385.837 177.19C386.369 177.452 386.831 177.804 387.213 178.226C387.594 178.658 387.896 179.14 388.117 179.683C388.338 180.226 388.448 180.779 388.448 181.331C388.448 182.216 388.227 183.02 387.785 183.744C387.343 184.467 386.741 184.99 385.988 185.312L389.101 190.448H386.118L383.336 185.875H380.725V190.448H378.064ZM380.725 183.543H384.049C384.29 183.543 384.521 183.482 384.732 183.372C384.943 183.261 385.124 183.1 385.285 182.899C385.435 182.698 385.556 182.467 385.646 182.196C385.737 181.924 385.777 181.633 385.777 181.331C385.777 181.01 385.727 180.718 385.626 180.447C385.526 180.176 385.385 179.944 385.214 179.743C385.044 179.542 384.843 179.392 384.622 179.281C384.401 179.17 384.17 179.12 383.939 179.12H380.725V183.543Z" fill="#263238"/>
</g>
<defs>
<clipPath id="clip0_1_307">
<rect width="415" height="429" fill="white"/>
</clipPath>
</defs>
</svg>
